<svg xmlns="http://www.w3.org/2000/svg" viewBox="0 0 673.73 220.87"><title>biometria_logo_RGB Страницу 3</title><path d="M3266.41,587.62a4.88,4.88,0,0,1-4.27-1.51,60.24,60.24,0,0,0-36.88-19.21,65.66,65.66,0,0,0-14.66-.34,4.65,4.65,0,0,1-5.15-4,4.58,4.58,0,0,1,4.3-4.88,75.71,75.71,0,0,1,16.91.4,69.72,69.72,0,0,1,42.69,22.22,4.31,4.31,0,0,1-.52,6.32A4.88,4.88,0,0,1,3266.41,587.62Z" transform="translate(-3115.85 -489.57)" style="fill:#0d6fb5"/><path d="M3280.7,654.38a5,5,0,0,1-1.93-.11,4.44,4.44,0,0,1-3.3-5.5c0.59-2,1.09-4.06,1.51-6.12a68.14,68.14,0,0,0,.57-24.16,4.55,4.55,0,0,1,4-5.11h0a4.69,4.69,0,0,1,5.35,3.75,76.57,76.57,0,0,1-.64,27.16c-0.46,2.3-1,4.6-1.69,6.84A4.69,4.69,0,0,1,3280.7,654.38Z" transform="translate(-3115.85 -489.57)" style="fill:#0d6fb5"/><path d="M3217.13,709.72a75.85,75.85,0,0,1-20.58,0A73.53,73.53,0,0,1,3185,707.2a4.42,4.42,0,0,1-3-5.65,4.83,4.83,0,0,1,6-2.88,63.55,63.55,0,0,0,10,2.19c28.27,3.87,57-11.2,71.44-37.48a4.9,4.9,0,0,1,6.4-1.93,4.35,4.35,0,0,1,2,6C3265,690.83,3242,706.31,3217.13,709.72Z" transform="translate(-3115.85 -489.57)" style="fill:#0d6fb5"/><path d="M3160,691a4.89,4.89,0,0,1-4.14-1.37c-16.75-16.95-23.82-41.65-18.91-66.09a4.76,4.76,0,0,1,5.55-3.59,4.48,4.48,0,0,1,3.78,5.22c-4.35,21.64,1.83,43.45,16.54,58.32a4.31,4.31,0,0,1-.24,6.34A4.87,4.87,0,0,1,3160,691Z" transform="translate(-3115.85 -489.57)" style="fill:#0d6fb5"/><path d="M3266,633.82a5.11,5.11,0,0,1-.61,0,4.61,4.61,0,0,1-4.8-4.41,48,48,0,0,0-2.2-13.83,44.54,44.54,0,0,0-21.52-26.13,4.34,4.34,0,0,1-1.78-6.1,4.91,4.91,0,0,1,6.47-1.71A53.52,53.52,0,0,1,3267.51,613a56.52,56.52,0,0,1,2.6,16.27A4.59,4.59,0,0,1,3266,633.82Z" transform="translate(-3115.85 -489.57)" style="fill:#0d6fb5"/><path d="M3255.63,665.67a4.12,4.12,0,0,1-2.8-.61,3.61,3.61,0,0,1-1-5.2,44.73,44.73,0,0,0,7.73-17.58,4,4,0,0,1,4.63-3,3.74,3.74,0,0,1,3.15,4.36,52,52,0,0,1-9,20.42A4,4,0,0,1,3255.63,665.67Z" transform="translate(-3115.85 -489.57)" style="fill:#0d6fb5"/><path d="M3215.8,692a57.89,57.89,0,0,1-15.69,0,53.5,53.5,0,0,1-40.69-28.31,4.38,4.38,0,0,1,2.15-6,4.86,4.86,0,0,1,6.36,2,44.2,44.2,0,0,0,33.58,23.45c13.34,1.82,26.86-2,38.06-10.69a4.93,4.93,0,0,1,6.68.6,4.32,4.32,0,0,1-.66,6.31A62.51,62.51,0,0,1,3215.8,692Z" transform="translate(-3115.85 -489.57)" style="fill:#0d6fb5"/><path d="M3163.68,661.71" transform="translate(-3115.85 -489.57)" style="fill:#0d6fb5"/><path d="M3159,648.57" transform="translate(-3115.85 -489.57)" style="fill:#0d6fb5"/><path d="M3159.61,653a4.71,4.71,0,0,1-5.31-3.54,58.18,58.18,0,0,1,0-23.59,4.76,4.76,0,0,1,5.55-3.59,4.48,4.48,0,0,1,3.78,5.22,49.75,49.75,0,0,0,0,20.17,4.52,4.52,0,0,1-3.73,5.28Z" transform="translate(-3115.85 -489.57)" style="fill:#0d6fb5"/><path d="M3171.72,580.46a5,5,0,0,1-1.77-.05,4.46,4.46,0,0,1-3.57-5.35c1.89-7.83,3.82-15.8,5.67-23.41,1.73-7.1,3.38-13.9,4.84-20a4.78,4.78,0,0,1,5.68-3.4,4.46,4.46,0,0,1,3.57,5.35c-1.47,6.09-3.12,12.89-4.85,20-1.85,7.61-3.78,15.57-5.67,23.4A4.68,4.68,0,0,1,3171.72,580.46Z" transform="translate(-3115.85 -489.57)" style="fill:#0d6fb5"/><path d="M3245.13,621.21a4.78,4.78,0,0,1-5-2.63,28.32,28.32,0,0,0-22-16.25,31.51,31.51,0,0,0-16.2,2.14,4.84,4.84,0,0,1-6.23-2.32,4.41,4.41,0,0,1,2.48-5.9,41.53,41.53,0,0,1,21.35-2.79,37.65,37.65,0,0,1,29.29,21.5,4.4,4.4,0,0,1-2.46,5.91A5,5,0,0,1,3245.13,621.21Z" transform="translate(-3115.85 -489.57)" style="fill:#0d6fb5"/><path d="M3206.22,673.88a5,5,0,0,1-1.36,0,37.6,37.6,0,0,1-25.48-14,39.33,39.33,0,0,1-7.57-31.31c1.42-8,8.23-35.83,14.25-60.41a4.79,4.79,0,0,1,5.69-3.39,4.45,4.45,0,0,1,3.55,5.36c-6,24.45-12.76,52.16-14.13,59.87a30.75,30.75,0,0,0,5.83,24.49A28.14,28.14,0,0,0,3206.05,665a4.51,4.51,0,0,1,4.11,5A4.65,4.65,0,0,1,3206.22,673.88Z" transform="translate(-3115.85 -489.57)" style="fill:#0d6fb5"/><path d="M3198.71,542.27a4.59,4.59,0,0,1-1.68,0,4.08,4.08,0,0,1-3.26-4.91c1.14-4.68,2.26-9.3,2.73-11.3a4.39,4.39,0,0,1,5.19-3.16,4.09,4.09,0,0,1,3.31,4.88c-0.48,2-1.6,6.67-2.75,11.38A4.3,4.3,0,0,1,3198.71,542.27Z" transform="translate(-3115.85 -489.57)" style="fill:#0d6fb5"/><path d="M3276.56,605.71a4.37,4.37,0,0,1-4.36-2.84,57,57,0,0,0-2.5-6.05,4,4,0,0,1,2.14-5.42,4.47,4.47,0,0,1,5.75,2.06,65.11,65.11,0,0,1,2.85,6.9,4,4,0,0,1-2.77,5.16A4.56,4.56,0,0,1,3276.56,605.71Z" transform="translate(-3115.85 -489.57)" style="fill:#38a6de"/><path d="M3174.95,702.36a5,5,0,0,1-3-.5,69.65,69.65,0,0,1-6.61-3.9,4.32,4.32,0,0,1-1.12-6.25,4.93,4.93,0,0,1,6.62-1.08,60.09,60.09,0,0,0,5.7,3.36,4.34,4.34,0,0,1,1.86,6.08A4.77,4.77,0,0,1,3174.95,702.36Z" transform="translate(-3115.85 -489.57)" style="fill:#38a6de"/><path d="M3144.84,609.88a4.58,4.58,0,0,1-1.5,0A4.1,4.1,0,0,1,3140,605c4.16-18.69,10-42.76,15.1-64,1.41-5.85,2.78-11.53,4.08-16.91a4.38,4.38,0,0,1,5.2-3.11,4.09,4.09,0,0,1,3.28,4.9c-1.29,5.38-2.67,11.07-4.08,16.92-5.12,21.2-10.92,45.23-15.07,63.85A4.28,4.28,0,0,1,3144.84,609.88Z" transform="translate(-3115.85 -489.57)" style="fill:#38a6de"/><path d="M3120.81,709.64a4.58,4.58,0,0,1-1.5,0,4.1,4.1,0,0,1-3.36-4.85c4.16-18.69,7.66-31.28,8.95-36.66a4.38,4.38,0,0,1,5.2-3.11,4.09,4.09,0,0,1,3.28,4.9c-1.29,5.38-4.77,17.91-8.92,36.54A4.28,4.28,0,0,1,3120.81,709.64Z" transform="translate(-3115.85 -489.57)" style="fill:#38a6de"/><path d="M3168.63,512a4.61,4.61,0,0,1-1.57-.06,4.12,4.12,0,0,1-3.31-4.92c1.45-6.11,2.53-10.75,3.29-14.19a4.39,4.39,0,0,1,5.18-3.21,4.12,4.12,0,0,1,3.38,4.88c-0.77,3.48-1.86,8.16-3.32,14.3A4.31,4.31,0,0,1,3168.63,512Z" transform="translate(-3115.85 -489.57)" style="fill:#38a6de"/><path d="M3222.94,583.91a4.38,4.38,0,0,1-1.39,0c-0.64-.12-1.29-0.22-1.93-0.31a42.28,42.28,0,0,0-13.59.36,4.13,4.13,0,0,1-4.87-3.08,4,4,0,0,1,3.28-4.61,51,51,0,0,1,16.4-.43c0.78,0.11,1.57.23,2.34,0.38a3.92,3.92,0,0,1,3.26,4.6A4.08,4.08,0,0,1,3222.94,583.91Z" transform="translate(-3115.85 -489.57)" style="fill:#38a6de"/><path d="M3163.15,617.56a4.7,4.7,0,0,1-1.59-.05,4.19,4.19,0,0,1-3.38-5c1.51-6.42,3.54-14.68,6.18-25.25a4.49,4.49,0,0,1,5.36-3.14,4.18,4.18,0,0,1,3.31,5c-2.64,10.53-4.65,18.75-6.16,25.14A4.39,4.39,0,0,1,3163.15,617.56Z" transform="translate(-3115.85 -489.57)" style="fill:#38a6de"/><path d="M3184.55,520.71a4.62,4.62,0,0,1-1.6-.06,4.12,4.12,0,0,1-3.28-5c0.65-2.66,1.16-4.8,1.52-6.37a4.41,4.41,0,0,1,5.2-3.2,4.13,4.13,0,0,1,3.37,4.9c-0.37,1.64-.88,3.77-1.55,6.5A4.32,4.32,0,0,1,3184.55,520.71Z" transform="translate(-3115.85 -489.57)" style="fill:#38a6de"/><path d="M3242.82,649.83a3.84,3.84,0,0,1-2.17-.33,3.37,3.37,0,0,1-1.62-4.66,26.74,26.74,0,0,0,2.63-7.33,25.24,25.24,0,0,0,.39-7.47,3.55,3.55,0,0,1,3.32-3.79,3.61,3.61,0,0,1,4,3.12,31.81,31.81,0,0,1-.49,9.42,33.44,33.44,0,0,1-3.3,9.17A3.69,3.69,0,0,1,3242.82,649.83Z" transform="translate(-3115.85 -489.57)" style="fill:#38a6de"/><path d="M3233.15,664.83a4.88,4.88,0,0,1-4.2-1.43,4.31,4.31,0,0,1,.36-6.33c0.71-.6,1.4-1.24,2-1.89a5,5,0,0,1,6.71-.18,4.31,4.31,0,0,1,.17,6.34c-0.82.82-1.7,1.62-2.59,2.38A4.87,4.87,0,0,1,3233.15,664.83Z" transform="translate(-3115.85 -489.57)" style="fill:#38a6de"/><path d="M3219.43,671.69a4,4,0,0,1-4.37-2.58,3.76,3.76,0,0,1,2.6-4.77c0.83-.25,1.66-0.55,2.47-0.89a4.09,4.09,0,0,1,5.27,2,3.72,3.72,0,0,1-2.09,5c-1.05.43-2.13,0.82-3.21,1.15A4.24,4.24,0,0,1,3219.43,671.69Z" transform="translate(-3115.85 -489.57)" style="fill:#38a6de"/><path d="M3159,707.48a4,4,0,0,1-4.55,2.25,3.76,3.76,0,0,1-2.57-4.79c0.24-.83.45-1.69,0.61-2.55A4.09,4.09,0,0,1,3157,699a3.72,3.72,0,0,1,3,4.48c-0.21,1.12-.48,2.23-0.79,3.32A4.24,4.24,0,0,1,3159,707.48Z" transform="translate(-3115.85 -489.57)" style="fill:#38a6de"/><path d="M3194.27,557.71a4.3,4.3,0,0,1-1.58,0,3.83,3.83,0,0,1-3.18-4.53l0.64-2.93a4.13,4.13,0,0,1,4.82-3,3.83,3.83,0,0,1,3.18,4.53l-0.64,2.93A4,4,0,0,1,3194.27,557.71Z" transform="translate(-3115.85 -489.57)" style="fill:#38a6de"/><path d="M3139.64,709.82a5,5,0,0,1-1.83,0,4.45,4.45,0,0,1-3.56-5.35c1.24-5.11,2.46-10.13,3-12.32a4.79,4.79,0,0,1,5.66-3.45,4.45,4.45,0,0,1,3.61,5.32c-0.52,2.22-1.75,7.27-3,12.4A4.69,4.69,0,0,1,3139.64,709.82Z" transform="translate(-3115.85 -489.57)" style="fill:#38a6de"/><path d="M3213.25,550.61a5,5,0,0,1-1.83-.09,4.45,4.45,0,0,1-3.43-5.44l0.91-3.36a4.79,4.79,0,0,1,5.77-3.26,4.45,4.45,0,0,1,3.43,5.44l-0.91,3.36A4.69,4.69,0,0,1,3213.25,550.61Z" transform="translate(-3115.85 -489.57)" style="fill:#38a6de"/><path d="M3350.9,668.26a8.35,8.35,0,0,1-3.65-3.32l-0.52,2.39a1.77,1.77,0,0,1-.68,1.13,1.92,1.92,0,0,1-1.19.42h-5.23a1.18,1.18,0,0,1-1-.45,1.35,1.35,0,0,1-.19-1.1l9.1-42.74a1.77,1.77,0,0,1,.68-1.13,1.92,1.92,0,0,1,1.19-.42H3355a1.18,1.18,0,0,1,1,.45,1.36,1.36,0,0,1,.19,1.1l-3,14.33a17.4,17.4,0,0,1,4.55-3.16,13.14,13.14,0,0,1,5.58-1.1q5.62,0,8.55,3.13a11.82,11.82,0,0,1,2.94,8.42,23.55,23.55,0,0,1-.32,3.55,44.35,44.35,0,0,1-1,4.58,22.61,22.61,0,0,1-5.94,11.1,14.68,14.68,0,0,1-10.65,4.07A13.23,13.23,0,0,1,3350.9,668.26ZM3364.75,654a20.64,20.64,0,0,0,.77-3.87,27.37,27.37,0,0,0,.26-2.91,6.31,6.31,0,0,0-1.23-4.13q-1.23-1.48-4.2-1.49a8.79,8.79,0,0,0-6.13,2.29,10.69,10.69,0,0,0-3.29,5.46q-0.65,2.78-1,5a13.76,13.76,0,0,0-.19,2.26,6.54,6.54,0,0,0,1.36,4.29,5.37,5.37,0,0,0,4.39,1.65Q3362.1,662.55,3364.75,654Z" transform="translate(-3115.85 -489.57)" style="fill:#3b3835"/><path d="M3397.19,668.42a1.28,1.28,0,0,1-.23-1.1l6.52-30.47a1.76,1.76,0,0,1,.68-1.13,1.92,1.92,0,0,1,1.19-.42h5.49a1.11,1.11,0,0,1,1,.45,1.36,1.36,0,0,1,.19,1.1l-6.46,30.47a1.92,1.92,0,0,1-.65,1.1,1.72,1.72,0,0,1-1.16.45h-5.49A1.27,1.27,0,0,1,3397.19,668.42Zm8.07-39.06a1.28,1.28,0,0,1-.23-1.1l1-4.71a1.71,1.71,0,0,1,.61-1.13,1.84,1.84,0,0,1,1.26-.48h5.94a1.29,1.29,0,0,1,1,.45,1.33,1.33,0,0,1,.26,1.16l-1,4.71a1.87,1.87,0,0,1-.68,1.1,1.84,1.84,0,0,1-1.19.45h-6A1.2,1.2,0,0,1,3405.26,629.37Z" transform="translate(-3115.85 -489.57)" style="fill:#3b3835"/><path d="M3437.8,666.39a10.68,10.68,0,0,1-3.65-8.55,15.46,15.46,0,0,1,.26-2.91,54.33,54.33,0,0,1,1.23-5.68,19.54,19.54,0,0,1,6.46-10.75q4.71-3.84,12.27-3.84,6.52,0,10.2,3.16a10.81,10.81,0,0,1,3.68,8.65,24.07,24.07,0,0,1-.26,2.78q-1,4.65-1.23,5.68a20,20,0,0,1-6.46,10.75q-4.65,3.84-12.33,3.84Q3441.45,669.52,3437.8,666.39Zm16.66-5.52a11.93,11.93,0,0,0,3.45-6.26q0.45-1.81,1.1-5a14.91,14.91,0,0,0,.26-2.78q0-5.68-5.55-5.68a8.28,8.28,0,0,0-5.81,2.19,12.4,12.4,0,0,0-3.42,6.26,31.29,31.29,0,0,0-1.1,5,15.19,15.19,0,0,0-.26,2.84q0,5.55,5.49,5.55A8.54,8.54,0,0,0,3454.46,660.87Z" transform="translate(-3115.85 -489.57)" style="fill:#3b3835"/><path d="M3490.54,668.42a1.28,1.28,0,0,1-.23-1.1l6.52-30.47a1.76,1.76,0,0,1,.68-1.13,1.92,1.92,0,0,1,1.19-.42h5.1a1.14,1.14,0,0,1,1,.42,1.38,1.38,0,0,1,.19,1.13l-0.45,2.2a17.55,17.55,0,0,1,4.33-3.26,11.6,11.6,0,0,1,5.36-1.13,11.48,11.48,0,0,1,6.13,1.52,7.7,7.7,0,0,1,3.36,4.23q4.65-5.75,11-5.75a10.46,10.46,0,0,1,7.36,2.55q2.77,2.55,2.78,7.46a19.31,19.31,0,0,1-.45,4.13l-4,18.53a1.83,1.83,0,0,1-.65,1.13,1.8,1.8,0,0,1-1.16.42h-5.36a1.27,1.27,0,0,1-1.07-.45,1.28,1.28,0,0,1-.23-1.1l3.87-18a12.55,12.55,0,0,0,.32-2.91q0-4.78-4.52-4.78a7.71,7.71,0,0,0-4.91,1.87,9.77,9.77,0,0,0-3.16,5.81l-3.87,18a1.83,1.83,0,0,1-.65,1.13,1.8,1.8,0,0,1-1.16.42h-5.42a1.2,1.2,0,0,1-1-.45,1.28,1.28,0,0,1-.23-1.1l3.81-18a12.55,12.55,0,0,0,.32-2.91,4.77,4.77,0,0,0-1.23-3.62,4.59,4.59,0,0,0-3.29-1.16,7.71,7.71,0,0,0-4.91,1.87,9.77,9.77,0,0,0-3.16,5.81l-3.81,18a1.77,1.77,0,0,1-.68,1.13,1.92,1.92,0,0,1-1.19.42h-5.49A1.27,1.27,0,0,1,3490.54,668.42Z" transform="translate(-3115.85 -489.57)" style="fill:#3b3835"/><path d="M3573.15,666.42q-3.36-3.1-3.36-8.84a21.71,21.71,0,0,1,.32-3.94q0.06-.45.71-3.23a21.15,21.15,0,0,1,7-11.56,18.72,18.72,0,0,1,12.23-4.2q6.39,0,9.65,3.26t3.26,8.94a26.24,26.24,0,0,1-.52,4.84l-0.32,1.36a1.87,1.87,0,0,1-.68,1.1,1.93,1.93,0,0,1-1.26.45h-21.37l-0.13.52a13.4,13.4,0,0,0-.19,2.2,6.8,6.8,0,0,0,1.39,4.42,4.89,4.89,0,0,0,4,1.71,9.2,9.2,0,0,0,6.65-3,4.13,4.13,0,0,1,1.1-.87,3.19,3.19,0,0,1,1.16-.16h5.68a1.11,1.11,0,0,1,.9.39,1.07,1.07,0,0,1,.19,1,8.84,8.84,0,0,1-2.74,3.62,20.42,20.42,0,0,1-6,3.58,21.41,21.41,0,0,1-8.17,1.52Q3576.5,669.52,3573.15,666.42Zm21-17.3V649a12.28,12.28,0,0,0,.26-2.52,6.19,6.19,0,0,0-1.42-4.29,5.27,5.27,0,0,0-4.13-1.58,7.93,7.93,0,0,0-5.68,2.29A11.32,11.32,0,0,0,3580,649v0.13h14.14Z" transform="translate(-3115.85 -489.57)" style="fill:#3b3835"/><path d="M3631.09,666.84a7.33,7.33,0,0,1-2.55-6.1,17.81,17.81,0,0,1,.45-3.94l3.16-14.59h-5.1a1.18,1.18,0,0,1-1-.45,1.35,1.35,0,0,1-.19-1.1l0.77-3.81a1.87,1.87,0,0,1,.68-1.1,1.92,1.92,0,0,1,1.26-.45h5l2.32-10.72a1.82,1.82,0,0,1,.65-1.13,1.8,1.8,0,0,1,1.16-.42h5.36a1.28,1.28,0,0,1,1.07.45,1.29,1.29,0,0,1,.23,1.1L3642,635.3h8.07a1.18,1.18,0,0,1,1,.45,1.36,1.36,0,0,1,.19,1.1l-0.84,3.81a1.59,1.59,0,0,1-.61,1.1,1.92,1.92,0,0,1-1.26.45h-8l-3,13.88a14.07,14.07,0,0,0-.39,3,2.58,2.58,0,0,0,.71,2,3.65,3.65,0,0,0,2.45.64h4.71a1.19,1.19,0,0,1,1,.45,1.36,1.36,0,0,1,.19,1.1l-0.84,4.07a1.77,1.77,0,0,1-.68,1.13,1.92,1.92,0,0,1-1.19.42H3639Q3633.64,668.88,3631.09,666.84Z" transform="translate(-3115.85 -489.57)" style="fill:#3b3835"/><path d="M3670.34,668.42a1.28,1.28,0,0,1-.23-1.1l6.52-30.41a1.9,1.9,0,0,1,.68-1.16,1.84,1.84,0,0,1,1.19-.45h5.29a1.24,1.24,0,0,1,1.07.48,1.37,1.37,0,0,1,.23,1.13l-0.58,2.65q3.23-4.26,9.68-4.26h3.23a1.18,1.18,0,0,1,1,.45,1.36,1.36,0,0,1,.19,1.1l-1,4.71a1.59,1.59,0,0,1-.61,1.1,1.92,1.92,0,0,1-1.26.45h-5.1a7.76,7.76,0,0,0-5.13,1.74,8.2,8.2,0,0,0-2.74,4.78L3679,667.33a1.87,1.87,0,0,1-.68,1.1,1.84,1.84,0,0,1-1.19.45h-5.75A1.27,1.27,0,0,1,3670.34,668.42Z" transform="translate(-3115.85 -489.57)" style="fill:#3b3835"/><path d="M3716.5,668.42a1.28,1.28,0,0,1-.23-1.1l6.52-30.47a1.76,1.76,0,0,1,.68-1.13,1.92,1.92,0,0,1,1.19-.42h5.49a1.11,1.11,0,0,1,1,.45,1.36,1.36,0,0,1,.19,1.1l-6.46,30.47a1.92,1.92,0,0,1-.65,1.1,1.72,1.72,0,0,1-1.16.45h-5.49A1.27,1.27,0,0,1,3716.5,668.42Zm8.07-39.06a1.28,1.28,0,0,1-.23-1.1l1-4.71a1.71,1.71,0,0,1,.61-1.13,1.84,1.84,0,0,1,1.26-.48h5.94a1.29,1.29,0,0,1,1,.45,1.33,1.33,0,0,1,.26,1.16l-1,4.71a1.87,1.87,0,0,1-.68,1.1,1.84,1.84,0,0,1-1.19.45h-6A1.2,1.2,0,0,1,3724.57,629.37Z" transform="translate(-3115.85 -489.57)" style="fill:#3b3835"/><path d="M3756.37,666.42q-2.84-3.1-2.84-8.46a25.28,25.28,0,0,1,.32-3.74,38.45,38.45,0,0,1,.9-4.26,24,24,0,0,1,5.94-11.14,14.52,14.52,0,0,1,10.78-4.16,12.67,12.67,0,0,1,5.88,1.13,8.88,8.88,0,0,1,3.42,3.2l0.45-2.13a1.76,1.76,0,0,1,.68-1.13,1.92,1.92,0,0,1,1.19-.42h5.17a1.27,1.27,0,0,1,1.06.45,1.29,1.29,0,0,1,.23,1.1l-6.46,30.47a1.77,1.77,0,0,1-.68,1.13,1.92,1.92,0,0,1-1.19.42h-5.17a1.22,1.22,0,0,1-1.29-1.55l0.52-2.39a17.69,17.69,0,0,1-4.62,3.42,13.32,13.32,0,0,1-5.91,1.16Q3759.21,669.52,3756.37,666.42Zm17.5-6.26a11.9,11.9,0,0,0,3.29-5.81q0.64-2.65,1-5a11.86,11.86,0,0,0,.19-2.07,6.08,6.08,0,0,0-1.36-4.1,5.4,5.4,0,0,0-4.33-1.58q-6.52,0-9,8.52a28.8,28.8,0,0,0-.84,3.87,24.08,24.08,0,0,0-.26,2.84,6.67,6.67,0,0,0,1.16,4.2q1.16,1.49,4,1.48A8.44,8.44,0,0,0,3773.86,660.16Z" transform="translate(-3115.85 -489.57)" style="fill:#3b3835"/></svg>