<svg xmlns="http://www.w3.org/2000/svg" viewBox="0 0 1105.15 220.87"><title>logo-large</title><path d="M3073.41,587.62a4.88,4.88,0,0,1-4.27-1.51,60.24,60.24,0,0,0-36.88-19.21,65.66,65.66,0,0,0-14.66-.34,4.65,4.65,0,0,1-5.15-4,4.58,4.58,0,0,1,4.3-4.88,75.71,75.71,0,0,1,16.91.4,69.72,69.72,0,0,1,42.69,22.22,4.31,4.31,0,0,1-.52,6.32A4.88,4.88,0,0,1,3073.41,587.62Z" transform="translate(-2922.85 -489.57)" style="fill:#0d6fb5"/><path d="M3087.7,654.38a5,5,0,0,1-1.93-.11,4.44,4.44,0,0,1-3.3-5.5c0.59-2,1.09-4.06,1.51-6.12a68.14,68.14,0,0,0,.57-24.16,4.55,4.55,0,0,1,4-5.11h0a4.69,4.69,0,0,1,5.35,3.75,76.57,76.57,0,0,1-.64,27.16c-0.46,2.3-1,4.6-1.69,6.84A4.69,4.69,0,0,1,3087.7,654.38Z" transform="translate(-2922.85 -489.57)" style="fill:#0d6fb5"/><path d="M3024.13,709.72a75.85,75.85,0,0,1-20.58,0A73.53,73.53,0,0,1,2992,707.2a4.42,4.42,0,0,1-3-5.65,4.83,4.83,0,0,1,6-2.88,63.55,63.55,0,0,0,10,2.19c28.27,3.87,57-11.2,71.44-37.48a4.9,4.9,0,0,1,6.4-1.93,4.35,4.35,0,0,1,2,6C3072,690.83,3049,706.31,3024.13,709.72Z" transform="translate(-2922.85 -489.57)" style="fill:#0d6fb5"/><path d="M2967,691a4.89,4.89,0,0,1-4.14-1.37c-16.75-16.95-23.82-41.65-18.91-66.09a4.76,4.76,0,0,1,5.55-3.59,4.48,4.48,0,0,1,3.78,5.22c-4.35,21.64,1.83,43.45,16.54,58.32a4.31,4.31,0,0,1-.24,6.34A4.87,4.87,0,0,1,2967,691Z" transform="translate(-2922.85 -489.57)" style="fill:#0d6fb5"/><path d="M3073,633.82a5.11,5.11,0,0,1-.61,0,4.61,4.61,0,0,1-4.8-4.41,48,48,0,0,0-2.2-13.83,44.54,44.54,0,0,0-21.52-26.13,4.34,4.34,0,0,1-1.78-6.1,4.91,4.91,0,0,1,6.47-1.71A53.52,53.52,0,0,1,3074.51,613a56.52,56.52,0,0,1,2.6,16.27A4.59,4.59,0,0,1,3073,633.82Z" transform="translate(-2922.85 -489.57)" style="fill:#0d6fb5"/><path d="M3062.63,665.67a4.12,4.12,0,0,1-2.8-.61,3.61,3.61,0,0,1-1-5.2,44.73,44.73,0,0,0,7.73-17.58,4,4,0,0,1,4.63-3,3.74,3.74,0,0,1,3.15,4.36,52,52,0,0,1-9,20.42A4,4,0,0,1,3062.63,665.67Z" transform="translate(-2922.85 -489.57)" style="fill:#0d6fb5"/><path d="M3022.8,692a57.89,57.89,0,0,1-15.69,0,53.5,53.5,0,0,1-40.69-28.31,4.38,4.38,0,0,1,2.15-6,4.86,4.86,0,0,1,6.36,2,44.2,44.2,0,0,0,33.58,23.45c13.34,1.82,26.86-2,38.06-10.69a4.93,4.93,0,0,1,6.68.6,4.32,4.32,0,0,1-.66,6.31A62.51,62.51,0,0,1,3022.8,692Z" transform="translate(-2922.85 -489.57)" style="fill:#0d6fb5"/><path d="M2970.68,661.71" transform="translate(-2922.85 -489.57)" style="fill:#0d6fb5"/><path d="M2966,648.57" transform="translate(-2922.85 -489.57)" style="fill:#0d6fb5"/><path d="M2966.61,653a4.71,4.71,0,0,1-5.31-3.54,58.18,58.18,0,0,1,0-23.59,4.76,4.76,0,0,1,5.55-3.59,4.48,4.48,0,0,1,3.78,5.22,49.75,49.75,0,0,0,0,20.17,4.52,4.52,0,0,1-3.73,5.28Z" transform="translate(-2922.85 -489.57)" style="fill:#0d6fb5"/><path d="M2978.72,580.46a5,5,0,0,1-1.77-.05,4.46,4.46,0,0,1-3.57-5.35c1.89-7.83,3.82-15.8,5.67-23.41,1.73-7.1,3.38-13.9,4.84-20a4.78,4.78,0,0,1,5.68-3.4,4.46,4.46,0,0,1,3.57,5.35c-1.47,6.09-3.12,12.89-4.85,20-1.85,7.61-3.78,15.57-5.67,23.4A4.68,4.68,0,0,1,2978.72,580.46Z" transform="translate(-2922.85 -489.57)" style="fill:#0d6fb5"/><path d="M3052.13,621.21a4.78,4.78,0,0,1-5-2.63,28.32,28.32,0,0,0-22-16.25,31.51,31.51,0,0,0-16.2,2.14,4.84,4.84,0,0,1-6.23-2.32,4.41,4.41,0,0,1,2.48-5.9,41.53,41.53,0,0,1,21.35-2.79,37.65,37.65,0,0,1,29.29,21.5,4.4,4.4,0,0,1-2.46,5.91A5,5,0,0,1,3052.13,621.21Z" transform="translate(-2922.85 -489.57)" style="fill:#0d6fb5"/><path d="M3013.22,673.88a5,5,0,0,1-1.36,0,37.6,37.6,0,0,1-25.48-14,39.33,39.33,0,0,1-7.57-31.31c1.42-8,8.23-35.83,14.25-60.41a4.79,4.79,0,0,1,5.69-3.39,4.45,4.45,0,0,1,3.55,5.36c-6,24.45-12.76,52.16-14.13,59.87a30.75,30.75,0,0,0,5.83,24.49A28.14,28.14,0,0,0,3013.05,665a4.51,4.51,0,0,1,4.11,5A4.65,4.65,0,0,1,3013.22,673.88Z" transform="translate(-2922.85 -489.57)" style="fill:#0d6fb5"/><path d="M3005.71,542.27a4.59,4.59,0,0,1-1.68,0,4.08,4.08,0,0,1-3.26-4.91c1.14-4.68,2.26-9.3,2.73-11.3a4.39,4.39,0,0,1,5.19-3.16,4.09,4.09,0,0,1,3.31,4.88c-0.48,2-1.6,6.67-2.75,11.38A4.3,4.3,0,0,1,3005.71,542.27Z" transform="translate(-2922.85 -489.57)" style="fill:#0d6fb5"/><path d="M3083.56,605.71a4.37,4.37,0,0,1-4.36-2.84,57,57,0,0,0-2.5-6.05,4,4,0,0,1,2.14-5.42,4.47,4.47,0,0,1,5.75,2.06,65.11,65.11,0,0,1,2.85,6.9,4,4,0,0,1-2.77,5.16A4.56,4.56,0,0,1,3083.56,605.71Z" transform="translate(-2922.85 -489.57)" style="fill:#38a6de"/><path d="M2981.95,702.36a5,5,0,0,1-3-.5,69.65,69.65,0,0,1-6.61-3.9,4.32,4.32,0,0,1-1.12-6.25,4.93,4.93,0,0,1,6.62-1.08,60.09,60.09,0,0,0,5.7,3.36,4.34,4.34,0,0,1,1.86,6.08A4.77,4.77,0,0,1,2981.95,702.36Z" transform="translate(-2922.85 -489.57)" style="fill:#38a6de"/><path d="M2951.84,609.88a4.58,4.58,0,0,1-1.5,0A4.1,4.1,0,0,1,2947,605c4.16-18.69,10-42.76,15.1-64,1.41-5.85,2.78-11.53,4.08-16.91a4.38,4.38,0,0,1,5.2-3.11,4.09,4.09,0,0,1,3.28,4.9c-1.29,5.38-2.67,11.07-4.08,16.92-5.12,21.2-10.92,45.23-15.07,63.85A4.28,4.28,0,0,1,2951.84,609.88Z" transform="translate(-2922.85 -489.57)" style="fill:#38a6de"/><path d="M2927.81,709.64a4.58,4.58,0,0,1-1.5,0,4.1,4.1,0,0,1-3.36-4.85c4.16-18.69,7.66-31.28,8.95-36.66a4.38,4.38,0,0,1,5.2-3.11,4.09,4.09,0,0,1,3.28,4.9c-1.29,5.38-4.77,17.91-8.92,36.54A4.28,4.28,0,0,1,2927.81,709.64Z" transform="translate(-2922.85 -489.57)" style="fill:#38a6de"/><path d="M2975.63,512a4.61,4.61,0,0,1-1.57-.06,4.12,4.12,0,0,1-3.31-4.92c1.45-6.11,2.53-10.75,3.29-14.19a4.39,4.39,0,0,1,5.18-3.21,4.12,4.12,0,0,1,3.38,4.88c-0.77,3.48-1.86,8.16-3.32,14.3A4.31,4.31,0,0,1,2975.63,512Z" transform="translate(-2922.85 -489.57)" style="fill:#38a6de"/><path d="M3029.94,583.91a4.38,4.38,0,0,1-1.39,0c-0.64-.12-1.29-0.22-1.93-0.31a42.28,42.28,0,0,0-13.59.36,4.13,4.13,0,0,1-4.87-3.08,4,4,0,0,1,3.28-4.61,51,51,0,0,1,16.4-.43c0.78,0.11,1.57.23,2.34,0.38a3.92,3.92,0,0,1,3.26,4.6A4.08,4.08,0,0,1,3029.94,583.91Z" transform="translate(-2922.85 -489.57)" style="fill:#38a6de"/><path d="M2970.15,617.56a4.7,4.7,0,0,1-1.59-.05,4.19,4.19,0,0,1-3.38-5c1.51-6.42,3.54-14.68,6.18-25.25a4.49,4.49,0,0,1,5.36-3.14,4.18,4.18,0,0,1,3.31,5c-2.64,10.53-4.65,18.75-6.16,25.14A4.39,4.39,0,0,1,2970.15,617.56Z" transform="translate(-2922.85 -489.57)" style="fill:#38a6de"/><path d="M2991.55,520.71a4.62,4.62,0,0,1-1.6-.06,4.12,4.12,0,0,1-3.28-5c0.65-2.66,1.16-4.8,1.52-6.37a4.41,4.41,0,0,1,5.2-3.2,4.13,4.13,0,0,1,3.37,4.9c-0.37,1.64-.88,3.77-1.55,6.5A4.32,4.32,0,0,1,2991.55,520.71Z" transform="translate(-2922.85 -489.57)" style="fill:#38a6de"/><path d="M3049.82,649.83a3.84,3.84,0,0,1-2.17-.33,3.37,3.37,0,0,1-1.62-4.66,26.74,26.74,0,0,0,2.63-7.33,25.24,25.24,0,0,0,.39-7.47,3.55,3.55,0,0,1,3.32-3.79,3.61,3.61,0,0,1,4,3.12,31.81,31.81,0,0,1-.49,9.42,33.44,33.44,0,0,1-3.3,9.17A3.69,3.69,0,0,1,3049.82,649.83Z" transform="translate(-2922.85 -489.57)" style="fill:#38a6de"/><path d="M3040.15,664.83a4.88,4.88,0,0,1-4.2-1.43,4.31,4.31,0,0,1,.36-6.33c0.71-.6,1.4-1.24,2-1.89a5,5,0,0,1,6.71-.18,4.31,4.31,0,0,1,.17,6.34c-0.82.82-1.7,1.62-2.59,2.38A4.87,4.87,0,0,1,3040.15,664.83Z" transform="translate(-2922.85 -489.57)" style="fill:#38a6de"/><path d="M3026.43,671.69a4,4,0,0,1-4.37-2.58,3.76,3.76,0,0,1,2.6-4.77c0.83-.25,1.66-0.55,2.47-0.89a4.09,4.09,0,0,1,5.27,2,3.72,3.72,0,0,1-2.09,5c-1.05.43-2.13,0.82-3.21,1.15A4.24,4.24,0,0,1,3026.43,671.69Z" transform="translate(-2922.85 -489.57)" style="fill:#38a6de"/><path d="M2966,707.48a4,4,0,0,1-4.55,2.25,3.76,3.76,0,0,1-2.57-4.79c0.24-.83.45-1.69,0.61-2.55A4.09,4.09,0,0,1,2964,699a3.72,3.72,0,0,1,3,4.48c-0.21,1.12-.48,2.23-0.79,3.32A4.24,4.24,0,0,1,2966,707.48Z" transform="translate(-2922.85 -489.57)" style="fill:#38a6de"/><path d="M3001.27,557.71a4.3,4.3,0,0,1-1.58,0,3.83,3.83,0,0,1-3.18-4.53l0.64-2.93a4.13,4.13,0,0,1,4.82-3,3.83,3.83,0,0,1,3.18,4.53l-0.64,2.93A4,4,0,0,1,3001.27,557.71Z" transform="translate(-2922.85 -489.57)" style="fill:#38a6de"/><path d="M2946.64,709.82a5,5,0,0,1-1.83,0,4.45,4.45,0,0,1-3.56-5.35c1.24-5.11,2.46-10.13,3-12.32a4.79,4.79,0,0,1,5.66-3.45,4.45,4.45,0,0,1,3.61,5.32c-0.52,2.22-1.75,7.27-3,12.4A4.69,4.69,0,0,1,2946.64,709.82Z" transform="translate(-2922.85 -489.57)" style="fill:#38a6de"/><path d="M3020.25,550.61a5,5,0,0,1-1.83-.09,4.45,4.45,0,0,1-3.43-5.44l0.91-3.36a4.79,4.79,0,0,1,5.77-3.26,4.45,4.45,0,0,1,3.43,5.44l-0.91,3.36A4.69,4.69,0,0,1,3020.25,550.61Z" transform="translate(-2922.85 -489.57)" style="fill:#38a6de"/><path d="M3157.24,684.31a16.57,16.57,0,0,1-7.24-6.6l-1,4.74a3.52,3.52,0,0,1-1.35,2.24,3.82,3.82,0,0,1-2.37.83h-10.38a2.35,2.35,0,0,1-2.05-.9,2.68,2.68,0,0,1-.38-2.18l18.07-84.83a3.52,3.52,0,0,1,1.35-2.24,3.81,3.81,0,0,1,2.37-.83h11.15a2.35,2.35,0,0,1,2.05.9,2.69,2.69,0,0,1,.38,2.18l-6,28.45a34.54,34.54,0,0,1,9-6.28,26.07,26.07,0,0,1,11.08-2.18q11.15,0,17,6.22t5.83,16.72a46.74,46.74,0,0,1-.64,7,88,88,0,0,1-1.92,9.1q-3.46,14-11.79,22t-21.14,8.08A26.26,26.26,0,0,1,3157.24,684.31Zm27.49-28.25a41,41,0,0,0,1.54-7.69,54.34,54.34,0,0,0,.51-5.77q0-5.25-2.43-8.2t-8.33-2.95a17.44,17.44,0,0,0-12.17,4.55,21.23,21.23,0,0,0-6.54,10.83q-1.28,5.51-2.05,9.87a27.31,27.31,0,0,0-.38,4.49,13,13,0,0,0,2.69,8.52q2.69,3.27,8.72,3.27Q3179.48,673,3184.73,656.05Z" transform="translate(-2922.85 -489.57)" style="fill:#3b3835"/><path d="M3249.12,684.63a2.55,2.55,0,0,1-.45-2.18L3261.62,622a3.5,3.5,0,0,1,1.35-2.24,3.81,3.81,0,0,1,2.37-.83h10.89a2.21,2.21,0,0,1,1.92.9,2.7,2.7,0,0,1,.38,2.18l-12.81,60.49a3.82,3.82,0,0,1-1.28,2.18,3.42,3.42,0,0,1-2.31.9h-10.89A2.53,2.53,0,0,1,3249.12,684.63Zm16-77.53a2.54,2.54,0,0,1-.45-2.18l2-9.35a3.39,3.39,0,0,1,1.22-2.24,3.66,3.66,0,0,1,2.5-1h11.79a2.57,2.57,0,0,1,2,.9,2.64,2.64,0,0,1,.51,2.31l-2.05,9.35a3.72,3.72,0,0,1-1.35,2.18,3.66,3.66,0,0,1-2.37.9h-11.92A2.38,2.38,0,0,1,3265.14,607.1Z" transform="translate(-2922.85 -489.57)" style="fill:#3b3835"/><path d="M3329.73,680.59q-7.24-6.22-7.24-17a30.69,30.69,0,0,1,.51-5.77,107.84,107.84,0,0,1,2.43-11.28q3.46-13.71,12.81-21.34t24.35-7.63q12.94,0,20.25,6.28t7.3,17.17a47.77,47.77,0,0,1-.51,5.51q-1.92,9.22-2.43,11.28-3.59,13.72-12.81,21.34t-24.48,7.63Q3337,686.81,3329.73,680.59Zm33.06-11q4.81-4.23,6.86-12.43,0.9-3.59,2.18-10a29.6,29.6,0,0,0,.51-5.51q0-11.27-11-11.28a16.43,16.43,0,0,0-11.53,4.36q-4.74,4.36-6.79,12.43a62.1,62.1,0,0,0-2.18,10,30.16,30.16,0,0,0-.51,5.64q0,11,10.89,11A16.94,16.94,0,0,0,3362.79,669.63Z" transform="translate(-2922.85 -489.57)" style="fill:#3b3835"/><path d="M3434.42,684.63a2.55,2.55,0,0,1-.45-2.18L3446.92,622a3.5,3.5,0,0,1,1.35-2.24,3.81,3.81,0,0,1,2.37-.83h10.12a2.27,2.27,0,0,1,1.92.83,2.75,2.75,0,0,1,.39,2.24l-0.9,4.36a34.83,34.83,0,0,1,8.59-6.47,23,23,0,0,1,10.64-2.24,22.79,22.79,0,0,1,12.18,3,15.28,15.28,0,0,1,6.66,8.39q9.23-11.4,21.91-11.41,9.1,0,14.61,5.06t5.51,14.8a38.32,38.32,0,0,1-.9,8.2l-7.94,36.78a3.62,3.62,0,0,1-1.28,2.24,3.56,3.56,0,0,1-2.31.83h-10.64a2.52,2.52,0,0,1-2.11-.9,2.55,2.55,0,0,1-.45-2.18l7.69-35.75a24.91,24.91,0,0,0,.64-5.77q0-9.48-9-9.48a15.3,15.3,0,0,0-9.74,3.72q-4.61,3.72-6.28,11.53l-7.69,35.75a3.62,3.62,0,0,1-1.28,2.24,3.56,3.56,0,0,1-2.31.83h-10.77a2.38,2.38,0,0,1-2-.9,2.54,2.54,0,0,1-.45-2.18l7.56-35.75a24.91,24.91,0,0,0,.64-5.77q0-4.87-2.43-7.18a9.12,9.12,0,0,0-6.53-2.31,15.3,15.3,0,0,0-9.74,3.72q-4.61,3.72-6.28,11.53l-7.56,35.75a3.52,3.52,0,0,1-1.35,2.24,3.82,3.82,0,0,1-2.37.83h-10.89A2.53,2.53,0,0,1,3434.42,684.63Z" transform="translate(-2922.85 -489.57)" style="fill:#3b3835"/><path d="M3598.38,680.65q-6.66-6.15-6.66-17.55a43.09,43.09,0,0,1,.64-7.82q0.13-.89,1.41-6.41,3.72-14.61,13.9-22.94a37.17,37.17,0,0,1,24.28-8.33q12.69,0,19.16,6.47t6.47,17.75a52.09,52.09,0,0,1-1,9.61l-0.64,2.69a3.72,3.72,0,0,1-1.35,2.18,3.83,3.83,0,0,1-2.5.9h-42.42l-0.26,1a26.6,26.6,0,0,0-.38,4.36,13.49,13.49,0,0,0,2.75,8.78q2.76,3.4,8,3.4,7.3,0,13.2-5.9a8.2,8.2,0,0,1,2.18-1.73,6.33,6.33,0,0,1,2.31-.32h11.28a2.21,2.21,0,0,1,1.79.77,2.13,2.13,0,0,1,.38,1.92q-0.9,3.07-5.45,7.18a40.54,40.54,0,0,1-11.92,7.11,42.49,42.49,0,0,1-16.21,3Q3605,686.81,3598.38,680.65ZM3640,646.31v-0.26a24.37,24.37,0,0,0,.51-5q0-5.38-2.82-8.52t-8.2-3.14a15.74,15.74,0,0,0-11.28,4.55,22.47,22.47,0,0,0-6.28,12.11v0.26H3640Z" transform="translate(-2922.85 -489.57)" style="fill:#3b3835"/><path d="M3713.4,681.49q-5.07-4-5.06-12.11a35.35,35.35,0,0,1,.9-7.82l6.28-29h-10.12a2.34,2.34,0,0,1-2.05-.9,2.67,2.67,0,0,1-.38-2.18l1.54-7.56a3.72,3.72,0,0,1,1.35-2.18,3.82,3.82,0,0,1,2.5-.9h10l4.61-21.27a3.6,3.6,0,0,1,1.28-2.24,3.56,3.56,0,0,1,2.31-.83h10.64a2.53,2.53,0,0,1,2.11.9,2.56,2.56,0,0,1,.45,2.18l-4.61,21.27h16a2.35,2.35,0,0,1,2,.9,2.7,2.7,0,0,1,.39,2.18l-1.67,7.56a3.15,3.15,0,0,1-1.22,2.18,3.81,3.81,0,0,1-2.5.9H3732.3l-6,27.55a27.94,27.94,0,0,0-.77,5.89,5.12,5.12,0,0,0,1.41,4q1.41,1.28,4.87,1.28h9.35a2.36,2.36,0,0,1,2.05.9,2.69,2.69,0,0,1,.38,2.18l-1.67,8.07a3.52,3.52,0,0,1-1.35,2.24,3.82,3.82,0,0,1-2.37.83h-9.1Q3718.46,685.52,3713.4,681.49Z" transform="translate(-2922.85 -489.57)" style="fill:#3b3835"/><path d="M3791.31,684.63a2.55,2.55,0,0,1-.45-2.18l12.94-60.36a3.78,3.78,0,0,1,1.35-2.31,3.65,3.65,0,0,1,2.37-.9H3818a2.45,2.45,0,0,1,2.11,1,2.73,2.73,0,0,1,.45,2.24l-1.15,5.26q6.41-8.46,19.22-8.46h6.41a2.35,2.35,0,0,1,2.05.9,2.7,2.7,0,0,1,.38,2.18l-2.05,9.35a3.16,3.16,0,0,1-1.22,2.18,3.81,3.81,0,0,1-2.5.9h-10.12a15.41,15.41,0,0,0-10.19,3.46,16.27,16.27,0,0,0-5.45,9.48l-7.43,35.11a3.72,3.72,0,0,1-1.35,2.18,3.66,3.66,0,0,1-2.37.9h-11.41A2.53,2.53,0,0,1,3791.31,684.63Z" transform="translate(-2922.85 -489.57)" style="fill:#3b3835"/><path d="M3882.93,684.63a2.55,2.55,0,0,1-.45-2.18L3895.43,622a3.5,3.5,0,0,1,1.35-2.24,3.81,3.81,0,0,1,2.37-.83H3910a2.21,2.21,0,0,1,1.92.9,2.7,2.7,0,0,1,.38,2.18l-12.81,60.49a3.82,3.82,0,0,1-1.28,2.18,3.42,3.42,0,0,1-2.31.9H3885A2.53,2.53,0,0,1,3882.93,684.63Zm16-77.53a2.54,2.54,0,0,1-.45-2.18l2-9.35a3.39,3.39,0,0,1,1.22-2.24,3.66,3.66,0,0,1,2.5-1h11.79a2.57,2.57,0,0,1,2,.9,2.64,2.64,0,0,1,.51,2.31l-2.05,9.35a3.72,3.72,0,0,1-1.35,2.18,3.66,3.66,0,0,1-2.37.9h-11.92A2.38,2.38,0,0,1,3899,607.1Z" transform="translate(-2922.85 -489.57)" style="fill:#3b3835"/><path d="M3962.06,680.65q-5.64-6.15-5.64-16.79a50.19,50.19,0,0,1,.64-7.43,76.33,76.33,0,0,1,1.79-8.46q3.59-13.84,11.79-22.11t21.4-8.27q7.43,0,11.66,2.24a17.63,17.63,0,0,1,6.79,6.34l0.9-4.23a3.49,3.49,0,0,1,1.35-2.24,3.81,3.81,0,0,1,2.37-.83h10.25a2.52,2.52,0,0,1,2.11.9,2.56,2.56,0,0,1,.45,2.18l-12.81,60.49a3.52,3.52,0,0,1-1.35,2.24,3.82,3.82,0,0,1-2.37.83h-10.25a2.43,2.43,0,0,1-2.56-3.07l1-4.74a35.11,35.11,0,0,1-9.16,6.79,26.45,26.45,0,0,1-11.73,2.31Q3967.7,686.81,3962.06,680.65Zm34.73-12.43a23.61,23.61,0,0,0,6.54-11.53q1.28-5.25,2-9.87a23.54,23.54,0,0,0,.39-4.1,12.07,12.07,0,0,0-2.69-8.14q-2.69-3.14-8.59-3.14-12.94,0-17.94,16.92a57.16,57.16,0,0,0-1.67,7.69,47.79,47.79,0,0,0-.51,5.64q0,5.38,2.31,8.33t7.95,2.95A16.75,16.75,0,0,0,3996.79,668.22Z" transform="translate(-2922.85 -489.57)" style="fill:#3b3835"/></svg>