<?xml version="1.0" standalone="no"?>
<!DOCTYPE svg PUBLIC "-//W3C//DTD SVG 20010904//EN"
 "http://www.w3.org/TR/2001/REC-SVG-20010904/DTD/svg10.dtd">
<svg version="1.0" xmlns="http://www.w3.org/2000/svg"
 width="476.000000pt" height="434.000000pt" viewBox="0 0 476.000000 434.000000"
 preserveAspectRatio="xMidYMid meet">

<g transform="translate(0.000000,434.000000) scale(0.100000,-0.100000)"
fill="#000000" stroke="none">
<path d="M1404 4097 c-22 -19 -28 -34 -32 -80 l-4 -57 -377 0 c-355 0 -378 -1
-408 -20 -41 -24 -46 -50 -41 -219 3 -131 3 -133 31 -157 40 -34 90 -32 128 5
16 16 30 40 30 53 1 13 2 50 3 83 l1 60 315 0 315 0 7 -55 c8 -66 40 -100 93
-100 54 0 94 43 97 103 1 39 6 48 22 53 12 2 341 3 731 2 l710 -3 7 -55 c5
-42 13 -60 33 -77 36 -31 85 -30 124 2 25 22 30 34 33 78 l3 52 316 3 317 3 3
-91 c4 -86 6 -93 32 -116 40 -34 90 -32 128 5 26 27 32 41 32 86 0 221 -3 244
-27 272 l-24 28 -389 5 -388 5 -3 52 c-3 44 -8 56 -33 78 -39 32 -88 33 -125
2 -22 -19 -28 -34 -32 -80 l-4 -57 -734 0 -734 0 0 51 c0 43 -5 55 -29 80 -37
37 -88 39 -127 6z"/>
<path d="M591 3356 c-53 -29 -50 29 -51 -1273 l0 -1213 29 -32 29 -33 872 0
872 0 24 28 24 28 0 365 0 364 54 0 c87 0 139 56 116 126 -16 47 -45 64 -106
64 -38 0 -53 4 -58 16 -3 9 -6 146 -6 305 l0 289 320 0 c317 0 320 0 320 -21
0 -35 53 -79 96 -79 45 0 94 40 94 77 l0 23 320 0 320 0 0 -84 c0 -75 3 -88
25 -114 14 -16 37 -32 52 -35 35 -6 88 15 102 41 7 13 11 208 11 568 l2 549
-31 27 -31 28 -1688 0 c-1381 -1 -1691 -3 -1711 -14z m3269 -476 l0 -300 -320
0 -321 0 1 212 c1 194 0 214 -18 237 -26 35 -72 47 -112 31 -55 -23 -60 -47
-60 -275 l0 -205 -320 0 -320 0 0 214 c0 199 -1 215 -20 239 -25 32 -72 43
-111 27 -54 -23 -59 -47 -59 -275 l0 -205 -320 0 -321 0 1 212 c1 194 0 214
-18 237 -26 35 -72 47 -112 31 -55 -23 -60 -47 -60 -275 l0 -205 -320 0 -320
0 0 293 c0 162 3 297 7 300 3 4 708 7 1565 7 l1558 0 0 -300z m-2490 -795 l0
-305 -317 2 -318 3 -3 303 -2 302 320 0 320 0 0 -305z m830 0 l0 -305 -314 0
c-277 0 -315 2 -320 16 -3 9 -6 146 -6 305 l0 289 320 0 320 0 0 -305z m-832
-792 l-3 -298 -315 0 -315 0 -3 298 -2 297 320 0 320 0 -2 -297z m832 -3 l0
-300 -317 2 -318 3 -3 298 -2 297 320 0 320 0 0 -300z"/>
<path d="M3183 2080 c-43 -18 -67 -77 -50 -125 6 -18 -2 -25 -61 -54 -193 -95
-353 -269 -426 -462 -160 -427 32 -893 448 -1084 102 -47 176 -65 301 -72 247
-13 459 65 637 235 224 214 314 519 243 822 -19 77 -88 225 -138 294 l-36 50
34 38 c21 22 35 49 35 64 0 63 -59 114 -117 99 -16 -3 -42 -20 -60 -37 l-32
-31 -48 31 c-26 17 -73 43 -104 57 l-56 28 5 46 c3 40 0 52 -21 77 l-25 29
-254 2 c-139 1 -263 -2 -275 -7z m422 -306 c332 -80 548 -412 489 -754 -42
-244 -224 -448 -464 -521 -107 -33 -265 -33 -370 -1 -112 35 -196 86 -281 171
-85 85 -126 151 -163 262 -64 192 -36 392 81 571 149 228 434 338 708 272z"/>
<path d="M3375 1545 l-25 -24 0 -225 c0 -223 0 -225 24 -253 20 -23 32 -28 70
-28 45 0 47 2 165 119 66 66 122 130 126 143 8 35 -19 89 -55 108 -39 20 -75
13 -112 -23 l-28 -26 0 88 c0 83 -1 89 -29 117 -39 39 -100 41 -136 4z"/>
</g>
</svg>
