<svg xmlns="http://www.w3.org/2000/svg" viewBox="0 0 512 311.11"><title>icon-email</title><path d="M511.65,126.63a26.26,26.26,0,0,0-26.23-26.19h0l-459.2.63A26.22,26.22,0,0,0,0,127.34l0.35,258a26.22,26.22,0,0,0,26.22,26.19h0l459.19-.63A26.26,26.26,0,0,0,512,384.66Zm-55,.08L256,266.15,55,127.26ZM340.85,292.47l119,92.27-408,.56,119.7-92.83a13.11,13.11,0,1,0-16.07-20.72l-128.91,100L26.24,139.24,248.58,292.9a13.11,13.11,0,0,0,14.94,0L485.44,138.61l0.34,233.07L356.92,271.75A13.11,13.11,0,0,0,340.85,292.47Z" transform="translate(0 -100.45)" style="fill:#457abc;"/></svg>