<?xml version="1.0" standalone="no"?>
<!DOCTYPE svg PUBLIC "-//W3C//DTD SVG 20010904//EN"
 "http://www.w3.org/TR/2001/REC-SVG-20010904/DTD/svg10.dtd">
<svg version="1.0" xmlns="http://www.w3.org/2000/svg"
 width="706.000000pt" height="792.000000pt" viewBox="0 0 706.000000 792.000000"
 preserveAspectRatio="xMidYMid meet">
<metadata>
Created by potrace 1.13, written by Peter Selinger 2001-2015
</metadata>
<g transform="translate(0.000000,792.000000) scale(0.100000,-0.100000)"
fill="#000000" stroke="none">
<path d="M1295 7843 c-22 -2 -258 -4 -525 -5 l-485 -3 -63 -34 c-72 -39 -120
-89 -157 -160 l-25 -50 0 -3653 0 -3653 36 -55 c51 -78 78 -104 148 -142 l61
-33 215 -6 c179 -6 1613 -5 4330 2 256 1 545 5 644 9 l178 8 52 36 c55 38 104
98 134 163 16 35 17 116 20 993 2 525 0 984 -3 1020 l-7 64 -23 -56 c-12 -30
-73 -201 -135 -379 -61 -178 -133 -367 -158 -419 l-46 -95 -4 -492 -4 -493
-2533 0 -2533 0 -6 1687 c-4 929 -7 1713 -7 1743 0 30 3 859 6 1843 l7 1787
2534 0 2534 0 0 -1563 c0 -1660 4 -2006 25 -1966 7 13 43 112 80 219 37 107
114 327 171 488 l105 293 -3 1322 -3 1322 -27 57 c-30 64 -98 136 -154 163
-26 12 -79 21 -168 27 -111 7 -4093 17 -4211 11z"/>
<path d="M2070 6740 c-86 -7 -135 -33 -147 -78 -5 -15 -8 -93 -8 -174 0 -142
1 -147 25 -173 54 -60 9 -57 1034 -56 874 1 941 3 959 19 11 9 25 28 32 42 16
32 25 195 16 288 -6 62 -11 76 -36 101 l-30 29 -885 4 c-487 2 -919 1 -960 -2z"/>
<path d="M6440 5983 c-89 -46 -84 -32 -459 -1128 -121 -352 -247 -719 -280
-815 -71 -205 -75 -238 -28 -284 51 -51 353 -156 447 -156 73 0 94 45 290 625
139 412 375 1093 394 1138 9 20 21 37 27 37 14 0 69 -120 69 -151 0 -44 -24
-108 -112 -294 -198 -418 -358 -879 -343 -985 8 -53 35 -118 59 -143 26 -26
71 -22 95 9 25 31 26 52 6 116 -16 55 -12 74 50 263 121 362 245 651 351 815
16 25 25 62 33 131 18 156 -8 238 -112 354 l-50 56 22 72 c26 87 26 120 2 172
-29 66 -99 110 -257 164 -112 38 -136 38 -204 4z"/>
<path d="M4705 5723 c-99 -2 -979 -4 -1955 -5 -1382 -2 -1780 -6 -1796 -15
-30 -17 -44 -64 -44 -145 0 -60 4 -74 27 -104 l26 -35 1966 3 c1569 3 1972 6
1997 16 51 21 74 98 54 181 -11 47 -47 93 -80 102 -8 2 -96 3 -195 2z"/>
<path d="M951 4986 c-19 -19 -36 -51 -42 -74 -10 -47 3 -134 27 -169 l15 -24
1987 3 c1564 2 1992 6 2009 15 52 30 51 195 -2 256 l-24 27 -1969 0 -1968 0
-33 -34z"/>
<path d="M937 4276 c-41 -61 -42 -159 -3 -230 l21 -38 1965 5 c1092 3 1981 9
2000 14 46 11 62 46 62 132 1 81 -7 107 -35 124 -17 9 -443 13 -2008 15
l-1986 3 -16 -25z"/>
<path d="M5659 3650 c-9 -5 -30 -47 -47 -92 -34 -92 -332 -946 -332 -953 0 -2
-65 -190 -144 -417 -79 -228 -147 -430 -151 -449 -6 -34 -4 -37 32 -59 51 -30
320 -120 360 -120 29 0 33 4 53 58 57 149 564 1621 614 1782 15 46 25 94 22
106 -7 25 -109 72 -271 123 -104 34 -112 35 -136 21z"/>
<path d="M949 3583 c-31 -34 -41 -66 -42 -123 0 -71 18 -118 52 -133 34 -15
3689 -20 3855 -5 60 5 125 16 143 23 l34 14 -3 93 c-3 90 -4 93 -30 106 -65
31 -227 34 -2103 39 -1828 5 -1891 4 -1906 -14z"/>
<path d="M934 2863 c-13 -20 -20 -51 -22 -105 -4 -66 -1 -82 19 -117 l23 -41
1460 2 c1556 1 1797 5 1804 26 2 6 12 12 22 12 14 0 18 10 22 48 6 66 -5 169
-20 184 -10 10 -347 14 -1651 16 l-1638 3 -19 -28z"/>
<path d="M3222 2213 c-148 -73 -528 -613 -618 -878 -53 -157 -35 -285 50 -350
89 -67 282 -75 294 -12 7 33 -16 44 -102 50 -138 10 -182 46 -179 147 3 159
140 422 376 725 87 111 215 245 236 245 70 0 -3 -412 -174 -975 -51 -168 -46
-213 27 -281 46 -43 69 -54 121 -54 34 0 53 7 83 31 51 40 114 118 156 191 80
143 124 212 136 216 17 5 16 -61 -4 -228 -24 -205 -11 -260 63 -260 74 0 120
45 267 263 53 78 105 153 117 167 20 23 22 24 34 6 17 -23 31 -88 45 -207 6
-52 18 -117 26 -146 34 -124 126 -110 299 47 122 110 168 125 300 99 53 -10
67 -10 80 1 28 24 14 53 -40 80 -41 20 -64 25 -130 24 -99 0 -126 -13 -255
-124 -93 -80 -154 -120 -166 -108 -3 4 -10 42 -15 85 -26 225 -49 308 -95 338
-13 8 -39 15 -59 15 -51 0 -110 -59 -203 -200 -41 -63 -98 -144 -125 -179 -61
-76 -67 -70 -54 57 5 48 10 132 10 187 1 85 -2 106 -21 143 -25 48 -62 68 -93
52 -32 -18 -91 -100 -164 -230 -39 -69 -93 -147 -121 -178 -55 -58 -67 -60
-122 -25 -50 31 -49 44 22 295 36 128 77 278 91 333 98 384 107 601 26 645
-29 15 -81 12 -119 -7z"/>
<path d="M4953 1393 c4 -120 11 -236 16 -257 13 -51 35 -74 59 -60 20 13 147
154 250 278 72 87 84 114 59 134 -33 27 -321 122 -371 122 -18 0 -19 -8 -13
-217z"/>
</g>
</svg>
