<?xml version="1.0" standalone="no"?>
<!DOCTYPE svg PUBLIC "-//W3C//DTD SVG 20010904//EN"
 "http://www.w3.org/TR/2001/REC-SVG-20010904/DTD/svg10.dtd">
<svg version="1.0" xmlns="http://www.w3.org/2000/svg"
 width="512.000000pt" height="512.000000pt" viewBox="0 0 512.000000 512.000000"
 preserveAspectRatio="xMidYMid meet">
<metadata>
Created by potrace 1.13, written by Peter Selinger 2001-2015
</metadata>
<g transform="translate(0.000000,512.000000) scale(0.100000,-0.100000)"
fill="#000000" stroke="none">
<path d="M2715 4944 c-1017 -207 -1544 -314 -1554 -314 -4 0 -29 35 -54 78
-57 99 -125 168 -178 182 -27 7 -156 10 -372 8 -326 -3 -333 -3 -380 -27 -65
-32 -133 -110 -152 -174 -13 -44 -15 -249 -15 -1612 0 -1745 -6 -1612 72
-1700 22 -25 64 -58 92 -73 l51 -27 598 0 599 0 29 33 c34 38 39 93 13 131
-36 51 -41 51 -653 51 -554 0 -571 1 -581 19 -7 14 -9 353 -8 1056 l3 1037
1912 1 1913 2 0 -103 c0 -150 26 -192 116 -192 26 0 44 8 65 29 l29 29 1 164
c0 90 0 285 -1 433 -1 245 -3 274 -21 315 -27 60 -83 117 -144 146 -47 22 -62
24 -227 24 -176 0 -178 0 -183 23 -3 12 -28 140 -55 284 -27 145 -55 272 -62
283 -14 21 -67 51 -90 49 -7 -1 -350 -71 -763 -155z m685 -92 c0 -11 147 -791
180 -955 6 -26 10 -52 10 -57 0 -6 -542 -10 -1455 -10 l-1455 0 -5 23 c-13 60
-75 440 -72 443 2 2 336 71 743 153 406 83 1025 208 1374 280 349 71 645 130
658 130 12 1 22 -3 22 -7z m-2512 -171 c10 -6 54 -93 49 -97 -1 -1 -108 -23
-237 -49 -129 -26 -250 -53 -267 -60 -20 -9 -39 -27 -49 -48 -15 -32 -14 -45
30 -303 25 -149 46 -275 46 -282 0 -9 -34 -12 -120 -12 l-120 0 0 408 c0 429
1 435 45 444 35 7 612 6 623 -1z m3150 -443 c9 -9 12 -69 12 -210 l0 -198
-119 0 c-105 0 -120 2 -125 18 -3 9 -19 91 -36 182 -17 91 -33 177 -36 193
l-6 27 149 0 c103 0 153 -4 161 -12z"/>
<path d="M3175 3189 c-552 -55 -1039 -394 -1285 -894 -101 -205 -140 -344
-162 -573 -39 -414 117 -857 417 -1189 222 -245 532 -422 869 -495 86 -19 131
-22 306 -22 189 0 214 2 325 28 151 35 233 65 366 131 544 270 899 832 899
1425 0 502 -257 997 -670 1293 -124 88 -347 198 -480 237 -186 54 -408 77
-585 59z m370 -224 c210 -34 433 -126 595 -245 159 -117 322 -307 406 -471
258 -510 181 -1150 -188 -1564 -203 -228 -447 -369 -756 -437 -141 -31 -423
-31 -569 0 -281 61 -499 177 -694 372 -208 207 -334 452 -384 745 -19 115 -22
343 -5 450 75 477 374 868 807 1055 100 43 202 73 318 94 107 19 356 20 470 1z"/>
<path d="M3262 2810 c-18 -11 -37 -32 -42 -46 -15 -38 -13 -1179 1 -1207 30
-58 15 -57 490 -57 l436 0 26 24 c52 48 46 124 -12 163 -34 23 -37 23 -387 23
l-354 0 0 525 0 525 -27 30 c-37 41 -86 48 -131 20z"/>
</g>
</svg>
