<?xml version="1.0" encoding="iso-8859-1"?>
<!-- Generator: Adobe Illustrator 19.0.0, SVG Export Plug-In . SVG Version: 6.00 Build 0)  -->
<svg version="1.1" id="Capa_1" xmlns="http://www.w3.org/2000/svg" xmlns:xlink="http://www.w3.org/1999/xlink" x="0px" y="0px"
	 viewBox="0 0 480 480" style="enable-background:new 0 0 480 480;" xml:space="preserve">
<g>
	<g>
		<path d="M432,0H8C3.582,0,0,3.582,0,8v424c0,4.418,3.582,8,8,8h216c4.418,0,8-3.582,8-8s-3.582-8-8-8H16V48h408v176
			c0,4.418,3.582,8,8,8s8-3.582,8-8V8C440,3.582,436.418,0,432,0z M424,32H16V16h408V32z"/>
	</g>
</g>
<g>
	<g>
		<path d="M400,104H40c-4.418,0-8,3.582-8,8v288c0,4.418,3.582,8,8,8h168c4.418,0,8-3.582,8-8s-3.582-8-8-8h-16v-56h8
			c4.418,0,8-3.582,8-8s-3.582-8-8-8h-8v-56h32c4.418,0,8-3.582,8-8s-3.582-8-8-8h-32v-56h56v32c0,4.418,3.582,8,8,8s8-3.582,8-8
			v-32h56c0,4.418,3.582,8,8,8s8-3.582,8-8h56v8c0,4.418,3.582,8,8,8s8-3.582,8-8v-88C408,107.582,404.418,104,400,104z M104,392H48
			v-56h56V392z M104,320H48v-56h56V320z M104,248H48v-56h56V248z M104,176H48v-56h56V176z M176,392h-56v-56h56V392z M176,320h-56
			v-56h56V320z M176,248h-56v-56h56V248z M176,176h-56v-56h56V176z M248,176h-56v-56h56V176z M320,176h-56v-56h56V176z M392,176h-56
			v-56h56V176z"/>
	</g>
</g>
<g>
	<g>
		<path d="M56,64h-8c-4.418,0-8,3.582-8,8v8c0,4.418,3.582,8,8,8h8c4.418,0,8-3.582,8-8v-8C64,67.582,60.418,64,56,64z"/>
	</g>
</g>
<g>
	<g>
		<path d="M384,64h-8c-4.418,0-8,3.582-8,8v8c0,4.418,3.582,8,8,8h8c4.418,0,8-3.582,8-8v-8C392,67.582,388.418,64,384,64z"/>
	</g>
</g>
<g>
	<g>
		<path d="M352,224c-70.692,0-128,57.308-128,128s57.308,128,128,128s128-57.308,128-128C479.916,281.342,422.658,224.084,352,224z
			 M352,464c-61.856,0-112-50.144-112-112s50.144-112,112-112s112,50.144,112,112C463.934,413.828,413.828,463.934,352,464z"/>
	</g>
</g>
<g>
	<g>
		<path d="M352,256c-4.418,0-8,3.582-8,8v83.056l-59.576,29.784c-3.954,1.975-5.559,6.782-3.584,10.736s6.782,5.559,10.736,3.584
			l64-32c2.712-1.355,4.425-4.128,4.424-7.16v-88C360,259.582,356.418,256,352,256z"/>
	</g>
</g>
<g>
	<g>
		<path d="M405.237,292.284c-5.329-4.759-11.272-8.783-17.669-11.964c-3.957-1.968-8.76-0.357-10.728,3.6
			c-1.968,3.957-0.357,8.76,3.6,10.728c31.653,15.731,44.56,54.143,28.83,85.795c-15.731,31.653-54.143,44.56-85.795,28.83
			c-5.119-2.544-9.874-5.762-14.138-9.569c-3.319-2.917-8.374-2.591-11.29,0.728c-2.879,3.276-2.604,8.253,0.618,11.192
			c32.955,29.429,83.527,26.571,112.957-6.384C441.05,372.286,438.192,321.713,405.237,292.284z"/>
	</g>
</g>
<g>
	<g>
		<path d="M327.16,283.92c-1.968-3.957-6.771-5.568-10.728-3.6c-30.124,14.951-47.681,47.147-43.936,80.568
			c0.452,4.044,3.867,7.105,7.936,7.112c0.299,0,0.598-0.016,0.896-0.048c4.375-0.49,7.532-4.423,7.064-8.8
			c-0.262-2.375-0.393-4.763-0.392-7.152c-0.085-24.343,13.718-46.604,35.56-57.352C327.517,292.68,329.128,287.877,327.16,283.92z"
			/>
	</g>
</g>
<g>
</g>
<g>
</g>
<g>
</g>
<g>
</g>
<g>
</g>
<g>
</g>
<g>
</g>
<g>
</g>
<g>
</g>
<g>
</g>
<g>
</g>
<g>
</g>
<g>
</g>
<g>
</g>
<g>
</g>
</svg>
