<svg xmlns="http://www.w3.org/2000/svg" viewBox="0 0 512 305.2"><title>icon-item-eye</title><path d="M256,103.4c-97.81,0-186.5,53.42-252,140.42A20.15,20.15,0,0,0,4,268C69.5,355.07,158.19,408.6,256,408.6s186.5-53.42,252-140.42A20.15,20.15,0,0,0,508,244C442.5,156.93,353.81,103.4,256,103.4Zm7,260.07a107.64,107.64,0,0,1-114.4-114.4C152,195.55,195.44,152,249.07,148.64A107.64,107.64,0,0,1,363.47,263C360,316.56,316.56,360,263,363.47Z" transform="translate(0 -103.4)" style="fill:#b6b6b6"/><path d="M259.78,313.83a58,58,0,1,1,54-54A58,58,0,0,1,259.78,313.83Z" transform="translate(0 -103.4)" style="fill:#b6b6b6"/></svg>