<?xml version="1.0" standalone="no"?>
<!DOCTYPE svg PUBLIC "-//W3C//DTD SVG 20010904//EN"
 "http://www.w3.org/TR/2001/REC-SVG-20010904/DTD/svg10.dtd">
<svg version="1.0" xmlns="http://www.w3.org/2000/svg"
 width="1600.000000pt" height="1600.000000pt" viewBox="0 0 1600.000000 1600.000000"
 preserveAspectRatio="xMidYMid meet">
<metadata>
Created by potrace 1.13, written by Peter Selinger 2001-2015
</metadata>
<g transform="translate(0.000000,1600.000000) scale(0.100000,-0.100000)"
fill="#000000" stroke="none">
<path d="M4160 15994 c-536 -38 -1021 -147 -1415 -320 -178 -78 -239 -158
-239 -314 0 -73 4 -92 27 -135 33 -63 51 -84 106 -123 93 -67 203 -72 337 -17
304 127 609 207 959 252 203 26 791 26 985 0 731 -99 1362 -366 1918 -812 430
-345 768 -767 1017 -1270 221 -447 341 -878 386 -1384 15 -178 7 -624 -16
-791 -128 -957 -566 -1782 -1275 -2401 -565 -494 -1254 -800 -2030 -904 -167
-23 -613 -31 -791 -16 -896 79 -1703 443 -2337 1055 -623 602 -1008 1376
-1129 2266 -26 192 -26 758 0 940 84 597 280 1122 601 1615 84 128 225 319
286 387 l39 43 1 -441 c0 -523 -1 -513 95 -610 42 -43 75 -66 109 -77 62 -21
159 -22 219 -1 60 20 141 93 175 158 l27 51 3 953 2 952 -942 -2 -943 -3 -55
-26 c-202 -96 -250 -358 -95 -512 21 -20 64 -50 94 -65 l56 -27 352 -3 352 -3
-96 -127 c-641 -842 -967 -1824 -940 -2832 7 -241 23 -420 57 -626 203 -1222
912 -2307 1951 -2987 599 -392 1247 -622 1981 -704 212 -23 694 -23 906 0 547
61 1055 208 1517 439 217 109 291 152 490 284 928 615 1587 1553 1855 2639 47
189 83 395 107 607 23 212 23 694 0 906 -114 1022 -535 1924 -1237 2646 -725
746 -1671 1206 -2718 1322 -130 14 -632 26 -752 18z"/>
<path d="M11912 15980 c-213 -56 -385 -220 -459 -437 -14 -40 -17 -109 -20
-430 l-4 -383 -1510 0 c-830 0 -1509 -2 -1509 -6 0 -3 24 -35 53 -72 79 -99
212 -291 297 -430 l75 -122 1295 -2 1295 -3 5 -380 c6 -425 9 -443 85 -569 90
-150 241 -264 396 -301 96 -22 854 -22 942 1 208 54 371 208 453 429 17 44 19
93 24 435 l5 385 793 3 792 2 0 -1115 0 -1115 -2702 0 -2703 0 0 -315 0 -315
2703 0 2702 0 0 -4920 0 -4920 -6665 0 -6665 0 0 2978 0 2978 -122 89 c-139
102 -315 246 -433 356 l-80 74 -3 -510 c-1 -281 -1 -1765 1 -3300 2 -2664 3
-2793 21 -2850 64 -213 225 -372 436 -432 63 -17 298 -18 6845 -18 l6780 0 75
23 c114 36 188 80 265 157 77 77 129 169 162 285 17 63 18 313 18 6515 0 6126
-1 6453 -18 6515 -31 115 -83 208 -161 286 -79 78 -135 113 -246 152 l-75 27
-862 3 -863 3 0 362 c0 335 -2 368 -21 437 -55 200 -212 366 -414 437 l-80 28
-415 2 c-383 2 -421 1 -488 -17z m786 -1567 l2 -953 -320 0 -320 0 0 948 c0
522 3 952 7 955 4 4 146 6 317 5 l311 -3 3 -952z"/>
<path d="M4369 14407 c-106 -30 -183 -99 -219 -194 -19 -51 -20 -88 -20 -1393
l-1 -1341 25 -54 c13 -30 44 -72 68 -95 24 -22 335 -258 692 -525 434 -324
664 -489 694 -499 59 -20 156 -20 215 0 61 20 141 93 175 158 23 44 27 63 27
141 0 96 -14 137 -69 202 -14 17 -289 228 -611 469 l-585 439 0 1216 c0 1355
4 1274 -70 1368 -71 90 -214 138 -321 108z"/>
<path d="M9260 9948 c-5 -13 -32 -86 -61 -163 -28 -77 -81 -203 -116 -280 -36
-77 -67 -148 -70 -157 -5 -17 27 -18 571 -18 l576 0 0 -790 0 -790 -1110 0
-1110 0 -2 -1112 -3 -1113 -792 -3 -793 -2 0 664 0 665 -67 -26 c-122 -46
-265 -93 -418 -137 l-150 -43 -3 -562 -2 -561 -790 0 -790 0 0 484 0 485 -42
5 c-24 3 -97 10 -163 16 -123 11 -372 45 -412 56 l-23 6 0 -1951 0 -1951 4765
0 4765 0 -2 3648 -3 3647 -1873 3 -1872 2 -10 -22z m3120 -1408 l0 -790 -795
0 -795 0 0 790 0 790 795 0 795 0 0 -790z m-2220 -2225 l0 -795 -795 0 -795 0
0 795 0 795 795 0 795 0 0 -795z m2220 0 l0 -795 -792 2 -793 3 -3 793 -2 792
795 0 795 0 0 -795z m-6670 -2220 l0 -795 -790 0 -790 0 0 795 0 795 790 0
790 0 0 -795z m2230 0 l0 -795 -795 0 -795 0 0 795 0 795 795 0 795 0 0 -795z
m2220 0 l0 -795 -795 0 -795 0 0 795 0 795 795 0 795 0 0 -795z m2220 0 l0
-795 -795 0 -795 0 0 795 0 795 795 0 795 0 0 -795z"/>
</g>
</svg>
