<?xml version="1.0" standalone="no"?>
<!DOCTYPE svg PUBLIC "-//W3C//DTD SVG 20010904//EN"
 "http://www.w3.org/TR/2001/REC-SVG-20010904/DTD/svg10.dtd">
<svg version="1.0" xmlns="http://www.w3.org/2000/svg"
 width="569.000000pt" height="569.000000pt" viewBox="0 0 569.000000 569.000000"
 preserveAspectRatio="xMidYMid meet">
<metadata>
Created by potrace 1.13, written by Peter Selinger 2001-2015
</metadata>
<g transform="translate(0.000000,569.000000) scale(0.100000,-0.100000)"
fill="#000000" stroke="none">
<path d="M305 5581 c-51 -13 -102 -41 -138 -78 -131 -130 -98 -351 65 -434
l38 -19 0 -1570 0 -1570 -52 0 c-62 0 -113 -27 -129 -67 -6 -17 -9 -268 -7
-717 l3 -691 28 -69 c54 -135 140 -220 282 -277 l60 -24 1349 -3 c1467 -3
1397 -5 1521 52 67 31 146 104 189 175 67 109 66 100 66 864 0 474 -3 695 -11
709 -21 40 -67 48 -264 48 l-185 0 0 146 c0 146 -6 176 -39 201 -11 9 -75 12
-218 13 l-203 0 0 1390 0 1390 38 19 c167 86 194 317 51 445 -89 80 -17 76
-1290 75 -618 -1 -1137 -4 -1154 -8z m2326 -210 c39 -40 39 -82 0 -122 l-29
-29 -1131 0 c-807 0 -1137 3 -1154 11 -53 24 -62 96 -18 140 l29 29 1137 0
1137 0 29 -29z m-151 -1397 c0 -581 -3 -1054 -8 -1052 -147 74 -163 80 -236
85 -75 6 -76 6 -62 27 105 148 139 310 101 475 -58 242 -287 421 -541 421
-240 0 -473 -185 -529 -421 -37 -159 -3 -330 91 -456 13 -17 24 -34 24 -36 0
-2 -34 -7 -75 -10 -188 -14 -362 -159 -409 -342 -13 -48 -16 -125 -16 -410 l0
-350 -185 3 -185 3 0 1559 0 1560 1015 0 1015 0 0 -1056z m-579 -267 c70 -34
142 -109 177 -185 22 -47 27 -71 27 -143 0 -79 -3 -91 -38 -161 -42 -86 -89
-133 -177 -176 -48 -24 -67 -27 -150 -27 -84 0 -102 3 -152 28 -175 86 -257
287 -189 465 39 102 110 172 221 214 70 27 208 20 281 -15z m409 -908 c58 -26
105 -72 138 -134 27 -49 27 -53 30 -280 1 -140 7 -238 13 -251 20 -39 51 -44
254 -44 l195 0 0 -90 0 -90 -325 0 -325 0 0 275 0 275 -90 0 -90 0 0 -275 0
-275 -370 0 -370 0 0 275 0 275 -90 0 -90 0 0 -275 0 -275 -96 0 -95 0 3 348
c3 338 4 348 26 397 30 65 75 112 137 141 l50 24 525 0 c506 0 527 -1 570 -21z
m1088 -1711 l-3 -633 -27 -51 c-15 -29 -46 -68 -69 -88 -83 -71 14 -67 -1485
-64 -1293 3 -1350 4 -1384 22 -49 26 -108 84 -133 131 -22 40 -22 45 -25 678
l-3 637 1566 0 1566 0 -3 -632z"/>
<path d="M640 4760 l0 -90 825 0 825 0 0 90 0 90 -825 0 -825 0 0 -90z"/>
<path d="M640 4390 l0 -90 825 0 825 0 0 90 0 90 -825 0 -825 0 0 -90z"/>
<path d="M1650 2550 l0 -90 90 0 90 0 0 90 0 90 -90 0 -90 0 0 -90z"/>
<path d="M1650 2180 l0 -90 90 0 90 0 0 90 0 90 -90 0 -90 0 0 -90z"/>
<path d="M3610 5583 c-167 -29 -299 -135 -368 -295 l-27 -63 -3 -541 -3 -540
-175 -175 c-97 -95 -179 -183 -184 -195 -12 -30 -1 -70 27 -96 l25 -23 946 -3
c675 -2 964 0 1007 8 154 30 284 133 346 276 l34 79 0 595 c0 564 -1 598 -20
655 -42 130 -156 248 -286 296 l-64 24 -615 1 c-338 1 -626 0 -640 -3z m1285
-208 c22 -11 59 -39 82 -62 74 -77 73 -66 73 -693 0 -627 1 -616 -73 -693 -87
-88 -11 -82 -967 -85 l-845 -2 106 107 c59 60 112 118 118 130 8 15 11 186 11
561 0 584 0 584 55 656 30 40 90 81 136 95 21 6 271 9 649 8 591 -2 617 -3
655 -22z"/>
<path d="M3825 5120 c-11 -4 -64 -53 -118 -107 l-97 -98 65 -65 65 -64 59 58
60 59 53 -57 c60 -66 93 -86 139 -86 25 0 45 13 103 69 l71 70 71 -70 c58 -56
78 -69 103 -69 46 0 81 22 140 86 l52 57 60 -59 59 -58 65 64 65 65 -102 102
c-139 139 -152 141 -265 31 l-61 -61 -29 21 c-15 12 -48 41 -72 66 -72 73
-105 71 -186 -13 -79 -82 -78 -82 -149 -13 -82 81 -105 92 -151 72z"/>
<path d="M3713 4468 l-103 -103 56 -62 c30 -35 61 -63 68 -63 6 0 34 23 61 50
27 28 53 50 58 50 5 0 40 -29 77 -64 37 -35 79 -65 93 -68 38 -7 76 14 137 76
30 31 59 56 65 56 6 0 35 -25 65 -56 30 -31 70 -63 88 -70 44 -20 81 -2 152
70 30 31 59 56 64 56 6 0 34 -23 62 -51 60 -60 63 -59 138 22 l48 52 -104 104
c-96 94 -108 103 -142 103 -34 0 -47 -9 -112 -72 l-74 -71 -74 71 c-65 63 -78
72 -111 72 -33 0 -46 -9 -111 -72 l-75 -72 -57 61 c-67 69 -88 83 -133 83 -27
0 -47 -15 -136 -102z"/>
<path d="M4585 3370 c-224 -48 -388 -210 -441 -435 -31 -132 1 -291 81 -411
l41 -61 -71 -6 c-183 -14 -349 -142 -407 -315 -21 -63 -22 -87 -26 -429 -3
-318 -1 -366 13 -396 24 -50 48 -57 210 -57 l145 0 0 -565 0 -565 29 -32 29
-33 497 0 497 0 29 33 29 32 0 565 0 565 145 0 c159 0 185 6 210 54 15 28 16
70 13 401 -4 356 -5 372 -27 433 -63 172 -222 293 -406 309 l-74 6 29 38 c71
88 115 240 106 360 -9 133 -65 255 -160 352 -99 100 -224 156 -366 162 -47 2
-103 0 -125 -5z m258 -214 c73 -35 138 -101 174 -174 25 -51 28 -68 28 -157 0
-89 -3 -106 -27 -155 -35 -71 -107 -143 -178 -178 -49 -24 -66 -27 -155 -27
-89 0 -106 3 -155 27 -71 35 -143 107 -178 178 -24 49 -27 66 -27 155 1 72 6
111 18 139 43 98 141 186 234 212 78 22 199 13 266 -20z m-375 -958 c17 -40
54 -133 82 -206 55 -139 87 -182 135 -182 47 0 79 42 134 182 30 73 67 166 83
206 l30 72 132 0 c160 0 205 -13 269 -75 82 -82 82 -79 85 -432 l3 -313 -90 0
-91 0 -2 273 -3 272 -90 0 -90 0 -3 -873 -2 -872 -135 0 -135 0 0 505 0 505
-95 0 -95 0 0 -505 0 -505 -135 0 -135 0 0 875 0 876 -92 -3 -93 -3 -3 -272
-2 -273 -91 0 -90 0 3 313 c3 353 3 350 84 432 62 62 103 73 266 74 l136 1 30
-72z m262 68 c0 -11 -40 -96 -45 -96 -5 0 -45 85 -45 96 0 2 20 4 45 4 25 0
45 -2 45 -4z"/>
</g>
</svg>
