<?xml version="1.0" standalone="no"?>
<!DOCTYPE svg PUBLIC "-//W3C//DTD SVG 20010904//EN"
 "http://www.w3.org/TR/2001/REC-SVG-20010904/DTD/svg10.dtd">
<svg version="1.0" xmlns="http://www.w3.org/2000/svg"
 width="300.000000pt" height="300.000000pt" viewBox="0 0 300.000000 300.000000"
 preserveAspectRatio="xMidYMid meet">
<metadata>
Created by potrace 1.10, written by Peter Selinger 2001-2011
</metadata>
<g transform="translate(0.000000,300.000000) scale(0.100000,-0.100000)"
fill="#000000" stroke="none">
<path d="M432 2568 c-18 -18 -17 -2121 1 -2136 8 -7 226 -10 657 -10 l645 -1
119 119 119 118 -1 256 -2 256 259 389 c166 248 256 392 251 401 -5 7 13 41
46 90 30 43 54 80 54 83 0 9 -100 77 -114 77 -7 0 -35 -34 -62 -75 -28 -42
-56 -75 -65 -75 -9 0 -34 -27 -55 -60 -22 -33 -42 -60 -46 -60 -18 0 -15 20 9
53 26 37 26 67 -2 67 -8 0 -63 -72 -125 -164 -100 -151 -108 -166 -94 -181 15
-14 18 -14 33 -1 9 8 30 37 46 65 17 28 36 51 44 51 7 0 11 -6 8 -15 -6 -15
-163 -253 -178 -269 -5 -5 -8 220 -7 501 0 281 -2 515 -6 521 -10 17 -1517 17
-1534 0z m1489 -575 l0 -531 -115 -173 c-64 -95 -112 -177 -108 -181 5 -5 -16
-56 -45 -114 -36 -69 -52 -111 -48 -124 6 -18 2 -20 -34 -20 -38 0 -41 2 -41
29 0 53 -21 56 -100 16 l-73 -37 -38 38 -38 37 -61 -31 c-33 -18 -62 -32 -65
-32 -2 0 -5 28 -7 62 -4 90 -22 88 -93 -6 l-57 -75 -61 -3 c-54 -3 -62 -5 -62
-23 0 -18 8 -20 77 -23 l76 -3 34 48 33 48 3 -40 c6 -67 15 -69 96 -25 l73 39
33 -34 c19 -19 40 -35 47 -35 8 0 36 11 63 25 51 26 64 28 66 10 0 -5 2 -16 2
-22 3 -20 158 -18 166 2 3 8 12 15 19 15 15 0 94 80 141 143 16 20 36 37 45
37 10 0 27 18 40 40 12 22 25 41 29 44 4 2 7 -85 7 -195 l0 -198 -110 -3 -110
-3 -3 -110 -3 -110 -612 2 -612 2 -1 1018 c-1 560 0 1020 2 1023 1 4 327 6
724 5 l721 0 0 -532z m580 144 c15 -11 15 -37 1 -37 -16 1 -43 30 -37 39 8 14
16 13 36 -2z m-33 -73 c5 -3 -31 -64 -38 -64 -3 0 -13 7 -23 15 -18 13 -18 15
4 44 19 25 25 29 38 19 9 -7 18 -13 19 -14z m-49 -121 c2 -1 -8 -21 -23 -43
l-26 -40 -40 26 c-22 15 -40 28 -40 31 0 2 12 21 26 43 l27 40 36 -27 c20 -14
38 -28 40 -30z m-148 -79 c58 -40 67 -50 58 -65 -5 -11 -12 -19 -14 -19 -2 0
-36 20 -75 46 -62 40 -69 47 -60 65 6 10 13 19 17 19 3 0 37 -21 74 -46z m9
-133 c0 -3 -86 -135 -192 -292 l-192 -287 -38 26 c-21 14 -38 30 -36 36 2 6
88 138 192 293 l188 282 39 -26 c22 -14 39 -28 39 -32z m-450 -597 c34 -23 38
-29 28 -43 -7 -9 -13 -17 -14 -19 -3 -5 -84 50 -84 57 0 7 21 31 27 31 2 0 21
-12 43 -26z m-56 -80 c9 -3 16 -10 16 -15 0 -12 -119 -149 -129 -149 -5 0 12
38 36 85 44 86 49 90 77 79z m74 -445 c-26 -22 -59 -54 -73 -72 l-25 -32 0 73
0 72 73 0 72 0 -47 -41z"/>
<path d="M1330 2265 c-10 -12 -10 -18 0 -30 10 -13 50 -15 245 -15 195 0 235
2 245 15 10 12 10 18 0 30 -10 13 -50 15 -245 15 -195 0 -235 -2 -245 -15z"/>
<path d="M1180 2115 c-10 -12 -10 -18 0 -30 11 -13 59 -15 320 -15 261 0 309
2 320 15 10 12 10 18 0 30 -11 13 -59 15 -320 15 -261 0 -309 -2 -320 -15z"/>
<path d="M580 1815 c-10 -12 -10 -18 0 -30 11 -13 67 -15 395 -15 328 0 384 2
395 15 10 12 10 18 0 30 -11 13 -67 15 -395 15 -328 0 -384 -2 -395 -15z"/>
<path d="M580 1665 c-10 -12 -10 -18 0 -30 11 -13 84 -15 545 -15 461 0 534 2
545 15 10 12 10 18 0 30 -11 13 -84 15 -545 15 -461 0 -534 -2 -545 -15z"/>
<path d="M580 1515 c-10 -12 -10 -18 0 -30 11 -13 75 -15 470 -15 395 0 459 2
470 15 10 12 10 18 0 30 -19 23 -921 23 -940 0z"/>
<path d="M580 1365 c-10 -12 -10 -18 0 -30 11 -13 84 -15 545 -15 461 0 534 2
545 15 10 12 10 18 0 30 -11 13 -84 15 -545 15 -461 0 -534 -2 -545 -15z"/>
<path d="M580 1215 c-10 -12 -10 -18 0 -30 19 -22 621 -22 640 0 10 12 10 18
0 30 -19 22 -621 22 -640 0z"/>
</g>
</svg>
