<?xml version="1.0" standalone="no"?>
<!DOCTYPE svg PUBLIC "-//W3C//DTD SVG 20010904//EN"
 "http://www.w3.org/TR/2001/REC-SVG-20010904/DTD/svg10.dtd">
<svg version="1.0" xmlns="http://www.w3.org/2000/svg"
 width="512.000000pt" height="512.000000pt" viewBox="0 0 512.000000 512.000000"
 preserveAspectRatio="xMidYMid meet">
<metadata>
Created by potrace 1.13, written by Peter Selinger 2001-2015
</metadata>
<g transform="translate(0.000000,512.000000) scale(0.100000,-0.100000)"
fill="#000000" stroke="none">
<path d="M4650 4622 c-29 -14 -53 -48 -142 -202 -59 -102 -106 -188 -105 -193
1 -4 104 -65 229 -136 l228 -129 106 186 c58 103 108 198 110 212 12 56 -7 74
-183 173 -92 52 -177 98 -188 101 -11 3 -36 -2 -55 -12z"/>
<path d="M3876 3284 c-236 -410 -432 -760 -436 -777 -5 -18 -16 -133 -25 -257
-9 -124 -18 -235 -20 -247 -4 -15 -15 -24 -37 -28 -23 -5 -57 -32 -113 -91
-111 -116 -115 -115 -115 44 0 148 -12 185 -80 251 -75 73 -194 90 -288 42
-38 -19 -42 -19 -72 -5 -40 20 -130 15 -182 -10 -46 -22 -107 -84 -157 -159
l-38 -57 -23 87 c-47 182 -82 242 -164 286 -33 17 -58 22 -126 22 -76 0 -91
-3 -139 -30 -65 -36 -115 -91 -152 -170 -36 -76 -63 -230 -54 -307 l6 -58 -86
0 c-102 0 -147 16 -170 60 -15 28 -16 55 -10 205 6 124 4 187 -5 224 -24 99
-110 131 -171 62 -23 -25 -28 -41 -34 -122 -23 -289 -101 -446 -246 -493 -55
-17 -68 -12 -69 26 0 28 -49 157 -100 263 -64 133 -165 283 -289 430 -121 142
-185 235 -220 319 -32 79 -36 222 -7 304 45 130 153 239 283 283 58 20 86 23
185 21 l117 -1 25 30 c57 67 17 150 -78 164 -86 13 -235 0 -308 -28 -157 -58
-284 -166 -355 -303 -59 -112 -76 -187 -76 -319 0 -93 4 -122 27 -190 45 -132
95 -211 267 -415 113 -134 189 -245 252 -368 53 -102 102 -235 94 -255 -3 -8
-22 -18 -43 -22 -115 -21 -222 -94 -263 -178 -56 -115 15 -232 156 -258 125
-24 268 73 323 219 l18 47 90 25 c109 32 191 79 246 142 l41 48 35 -34 c39
-38 98 -70 150 -82 19 -4 117 -8 217 -8 100 -1 185 -4 189 -8 4 -4 -10 -26
-30 -49 -59 -64 -132 -183 -202 -324 -99 -202 -130 -352 -100 -488 21 -95 69
-171 138 -218 49 -33 54 -34 147 -34 88 0 101 3 149 30 84 46 152 128 215 257
122 249 182 495 191 780 3 106 5 119 27 146 14 16 53 76 87 134 66 111 125
188 137 176 4 -3 2 -37 -4 -75 -5 -37 -13 -120 -17 -183 -6 -112 -6 -117 17
-144 16 -18 37 -29 65 -33 35 -4 46 -1 73 23 37 34 48 80 60 256 11 152 35
194 100 172 26 -9 26 -10 31 -144 5 -126 7 -139 35 -189 38 -69 88 -103 161
-109 86 -7 133 17 243 122 105 102 125 136 111 187 -6 18 -6 36 -2 39 4 4 102
75 218 158 l211 151 428 758 c236 417 429 761 431 764 4 7 -438 259 -453 259
-5 0 -202 -336 -437 -746z m-1827 -1108 c26 -31 75 -219 95 -367 7 -45 6 -48
-27 -68 -42 -26 -57 -27 -57 -2 0 52 -82 97 -131 71 -20 -11 -25 -10 -47 16
-23 26 -24 33 -19 119 6 112 28 175 73 215 38 33 93 41 113 16z m101 -685 c0
-59 -36 -254 -65 -356 -33 -114 -107 -283 -155 -355 -65 -98 -133 -125 -182
-72 -61 65 -63 187 -6 339 40 107 168 329 218 380 29 30 157 101 183 103 4 0
7 -18 7 -39z m-1534 -16 c-11 -8 -25 -15 -30 -15 -6 0 -2 7 8 15 11 8 25 15
30 15 6 0 2 -7 -8 -15z"/>
<path d="M1217 2719 c-44 -25 -61 -132 -32 -194 30 -61 107 -74 156 -26 27 27
29 35 29 101 0 66 -2 74 -29 101 -23 22 -39 29 -68 29 -21 0 -46 -5 -56 -11z"/>
</g>
</svg>
