<?xml version="1.0" standalone="no"?>
<!DOCTYPE svg PUBLIC "-//W3C//DTD SVG 20010904//EN"
 "http://www.w3.org/TR/2001/REC-SVG-20010904/DTD/svg10.dtd">
<svg version="1.0" xmlns="http://www.w3.org/2000/svg"
 width="458.000000pt" height="516.000000pt" viewBox="0 0 458.000000 516.000000"
 preserveAspectRatio="xMidYMid meet">

<g transform="translate(0.000000,516.000000) scale(0.100000,-0.100000)"
fill="#000000" stroke="none">
<path d="M250 5084 c-52 -16 -105 -58 -129 -105 l-21 -40 0 -2282 0 -2282 23
-40 c33 -59 96 -102 159 -110 29 -3 784 -5 1678 -3 1529 3 1627 4 1657 21 45
24 82 64 104 113 18 40 19 75 18 680 0 446 -3 633 -11 621 -5 -10 -38 -100
-73 -200 -107 -311 -114 -330 -132 -350 -20 -21 -20 -32 -22 -425 l-1 -232
-1585 0 -1585 1 0 332 c0 183 0 658 0 1056 0 520 -3 728 -11 738 -9 9 -9 13 0
13 8 0 11 302 11 1135 l0 1135 1585 0 1585 0 0 -452 c0 -249 0 -752 0 -1118 0
-387 4 -659 9 -650 5 8 27 69 50 135 22 66 71 206 108 310 l68 190 3 815 c2
734 1 819 -14 860 -20 55 -56 95 -108 122 -39 20 -56 20 -1684 22 -1179 1
-1655 -2 -1682 -10z m31 -2566 c15 -28 5 -21 -21 15 -15 20 -17 27 -6 18 9 -8
22 -23 27 -33z m-70 -25 l24 -28 -30 25 c-16 14 -32 26 -34 28 -2 1 0 2 6 2 5
0 20 -12 34 -27z m26 5 c-3 -8 -6 -5 -6 6 -1 11 2 17 5 13 3 -3 4 -12 1 -19z"/>
<path d="M4425 4909 c-4 -6 -9 -38 -10 -71 -2 -33 -6 -63 -9 -66 -3 -3 -6 -19
-6 -35 0 -22 4 -28 16 -23 9 3 31 6 50 6 34 0 62 29 36 38 -15 5 -16 42 -2 42
6 0 10 11 10 25 0 14 -4 25 -10 25 -5 0 -10 -6 -10 -14 0 -19 -14 -28 -33 -20
-13 5 -13 9 0 36 9 17 24 33 34 35 11 3 19 12 19 19 0 17 -75 20 -85 3z"/>
<path d="M1310 4393 c-38 -26 -40 -31 -40 -140 0 -92 2 -104 22 -122 12 -12
35 -23 52 -26 17 -3 289 -4 603 -3 l572 3 23 23 c21 21 23 32 23 127 0 95 -2
106 -23 127 l-23 23 -592 3 c-545 2 -594 1 -617 -15z"/>
<path d="M4105 3936 c-58 -26 -59 -28 -210 -471 -13 -38 -60 -176 -105 -305
-45 -129 -92 -266 -105 -305 -13 -38 -40 -114 -59 -168 -50 -142 -43 -153 131
-210 159 -52 180 -49 208 30 9 27 21 57 26 68 5 11 29 81 54 155 26 74 57 167
70 205 13 39 54 156 90 260 36 105 80 232 97 283 17 50 35 92 40 92 5 0 18
-21 30 -47 25 -56 19 -83 -49 -218 -93 -185 -223 -542 -223 -611 0 -45 28
-112 50 -119 46 -14 75 31 53 83 -13 31 -11 41 21 140 19 59 45 132 56 162 12
30 25 66 30 80 23 71 124 278 143 295 7 6 13 21 15 35 1 14 5 46 8 73 9 67
-11 126 -61 184 l-44 50 16 44 c35 97 -5 155 -139 200 -94 32 -102 33 -143 15z"/>
<path d="M666 3755 c-15 -11 -21 -31 -24 -74 -4 -50 -1 -62 17 -80 l21 -21
1235 0 c1222 0 1235 0 1255 20 30 30 28 119 -3 148 l-23 22 -1230 0 c-1063 -1
-1232 -3 -1248 -15z"/>
<path d="M664 3305 c-19 -19 -24 -34 -24 -72 0 -28 7 -58 16 -71 l15 -22 1243
0 c1191 0 1244 1 1259 18 25 28 23 122 -3 150 l-20 22 -1231 0 -1230 0 -25
-25z"/>
<path d="M656 2858 c-9 -12 -16 -43 -16 -68 0 -25 7 -56 16 -68 l15 -22 1243
0 c1191 0 1244 1 1259 18 19 21 23 111 7 143 -11 19 -35 19 -1260 19 l-1249 0
-15 -22z"/>
<path d="M3603 2468 c-6 -7 -29 -67 -51 -133 -23 -66 -71 -205 -108 -310 -36
-104 -76 -221 -89 -260 -13 -38 -51 -149 -85 -245 -97 -274 -93 -258 -67 -274
44 -27 238 -89 248 -79 9 9 57 143 169 473 22 63 69 201 105 305 149 428 151
434 135 450 -15 14 -208 85 -233 85 -8 0 -19 -6 -24 -12z"/>
<path d="M656 2418 c-23 -33 -21 -113 4 -138 20 -20 33 -20 1258 -20 1413 0
1272 -10 1272 92 0 97 133 88 -1278 88 l-1241 0 -15 -22z"/>
<path d="M656 1978 c-21 -29 -20 -107 0 -136 l15 -22 1024 0 c904 0 1024 2
1019 15 -5 11 -2 13 10 9 14 -5 16 4 16 63 0 40 -5 74 -12 81 -9 9 -253 12
-1034 12 l-1023 0 -15 -22z"/>
<path d="M2068 1563 c-65 -52 -126 -125 -222 -267 -163 -241 -204 -396 -126
-476 33 -33 65 -44 132 -45 55 0 78 16 62 43 -8 12 -22 16 -48 14 -46 -4 -103
14 -116 38 -29 54 5 170 88 310 94 155 254 350 288 350 43 0 -10 -290 -110
-605 -35 -110 -34 -129 13 -176 31 -32 46 -39 77 -39 32 0 45 7 83 48 25 26
60 74 77 107 49 93 68 125 77 125 10 0 9 -51 -5 -162 -15 -120 -6 -148 46
-148 42 0 79 39 171 180 36 55 70 100 75 100 17 0 30 -49 40 -149 10 -103 26
-131 75 -131 25 0 92 46 149 102 50 49 100 63 157 44 31 -11 47 -12 56 -4 58
48 -106 96 -183 54 -16 -8 -55 -40 -88 -70 -55 -51 -91 -72 -100 -58 -2 4 -7
45 -11 91 -7 94 -28 157 -56 171 -53 29 -89 1 -171 -130 -26 -41 -60 -90 -77
-109 l-31 -35 0 35 c0 19 5 66 10 104 14 112 -9 185 -57 185 -22 0 -65 -54
-107 -132 -46 -89 -101 -158 -124 -158 -26 0 -62 29 -62 49 0 10 15 70 34 132
114 388 140 565 90 620 -24 27 -65 24 -106 -8z"/>
<path d="M3167 1193 c-2 -5 -1 -74 2 -155 5 -123 9 -150 24 -165 17 -17 20
-16 60 27 23 25 60 68 82 95 22 27 50 61 63 75 40 45 31 54 -85 94 -109 36
-139 42 -146 29z"/>
</g>
</svg>
