<?xml version="1.0" standalone="no"?>
<!DOCTYPE svg PUBLIC "-//W3C//DTD SVG 20010904//EN"
 "http://www.w3.org/TR/2001/REC-SVG-20010904/DTD/svg10.dtd">
<svg version="1.0" xmlns="http://www.w3.org/2000/svg"
 width="512.000000pt" height="512.000000pt" viewBox="0 0 512.000000 512.000000"
 preserveAspectRatio="xMidYMid meet">
<metadata>
Created by potrace 1.13, written by Peter Selinger 2001-2015
</metadata>
<g transform="translate(0.000000,512.000000) scale(0.100000,-0.100000)"
fill="#000000" stroke="none">
<path d="M343 4810 c-57 -35 -62 -54 -63 -291 -1 -118 -1 -1106 -1 -2196 l1
-1983 865 0 865 0 0 140 0 140 -725 0 -725 0 0 1715 0 1715 2000 0 2000 0 0
-520 0 -520 140 0 140 0 1 643 c1 987 0 1076 -17 1109 -36 70 -145 91 -205 41
-53 -45 -59 -72 -59 -283 l0 -190 -215 0 -215 0 0 196 c0 181 -2 199 -21 234
-11 20 -34 44 -49 53 -59 35 -160 12 -192 -45 -9 -16 -15 -85 -18 -228 l-5
-205 -215 0 -215 0 -2 197 c-2 219 -8 242 -66 279 -45 28 -127 22 -163 -12
-48 -44 -54 -73 -54 -279 l0 -190 -215 0 -215 0 0 196 c0 219 -7 250 -64 285
-40 25 -112 25 -152 0 -57 -35 -64 -66 -64 -285 l0 -196 -215 0 -215 0 0 190
c0 206 -6 235 -54 279 -36 34 -118 40 -163 12 -58 -37 -64 -61 -66 -279 l-2
-197 -215 0 -215 0 -5 205 c-3 143 -9 212 -18 228 -37 64 -145 83 -202 36 -57
-48 -60 -64 -60 -279 l0 -195 -215 0 -215 0 0 190 c0 211 -6 238 -59 283 -41
34 -109 37 -158 7z"/>
<path d="M870 3390 l0 -140 900 0 900 0 0 140 0 140 -900 0 -900 0 0 -140z"/>
<path d="M3265 3119 c-316 -33 -622 -180 -861 -414 -196 -193 -325 -416 -396
-684 -26 -100 -31 -139 -35 -281 -4 -124 -1 -189 11 -262 87 -533 485 -990
1006 -1156 157 -50 278 -65 459 -59 224 8 364 43 566 141 146 72 268 159 390
281 115 116 194 222 266 358 196 374 218 786 60 1170 -203 497 -674 852 -1201
907 -108 11 -151 11 -265 -1z m325 -290 c160 -23 328 -88 470 -180 83 -54 243
-214 298 -299 94 -143 158 -311 183 -480 19 -130 7 -362 -25 -484 -114 -436
-469 -758 -916 -831 -515 -83 -1008 162 -1234 613 -71 142 -116 342 -116 519
0 733 604 1248 1340 1142z"/>
<path d="M3309 2567 c-69 -46 -69 -45 -69 -505 0 -452 0 -455 59 -505 l33 -27
443 0 444 0 36 31 c79 70 60 195 -36 233 -33 13 -92 16 -369 16 l-330 0 0 341
c0 325 -1 343 -20 374 -39 64 -129 83 -191 42z"/>
<path d="M840 2575 l0 -125 28 -1 c15 -1 78 -2 139 -3 l113 -1 0 128 0 127
-140 0 -140 0 0 -125z"/>
<path d="M1370 2576 c0 -90 3 -125 13 -128 9 -3 228 -2 260 1 4 1 7 57 7 126
l0 125 -140 0 -140 0 0 -124z"/>
<path d="M840 2050 l0 -130 140 0 140 0 0 130 0 130 -140 0 -140 0 0 -130z"/>
<path d="M1370 2050 l0 -130 140 0 140 0 0 130 0 130 -140 0 -140 0 0 -130z"/>
<path d="M840 1520 l0 -130 140 0 140 0 0 130 0 130 -140 0 -140 0 0 -130z"/>
<path d="M1370 1520 l0 -131 138 3 137 3 3 128 3 127 -141 0 -140 0 0 -130z"/>
<path d="M840 1000 l0 -130 140 0 140 0 0 130 0 130 -140 0 -140 0 0 -130z"/>
<path d="M1370 1000 l0 -130 140 0 140 0 0 130 0 130 -140 0 -140 0 0 -130z"/>
</g>
</svg>
