<?xml version="1.0" standalone="no"?>
<!DOCTYPE svg PUBLIC "-//W3C//DTD SVG 20010904//EN"
 "http://www.w3.org/TR/2001/REC-SVG-20010904/DTD/svg10.dtd">
<svg version="1.0" xmlns="http://www.w3.org/2000/svg"
 width="512.000000pt" height="512.000000pt" viewBox="0 0 512.000000 512.000000"
 preserveAspectRatio="xMidYMid meet">
<metadata>
Created by potrace 1.13, written by Peter Selinger 2001-2015
</metadata>
<g transform="translate(0.000000,512.000000) scale(0.100000,-0.100000)"
fill="#000000" stroke="none">
<path d="M1365 4937 c-59 -29 -92 -58 -131 -117 -28 -43 -29 -47 -34 -214 l-5
-171 -415 -5 c-402 -5 -416 -6 -456 -27 -45 -24 -103 -84 -131 -135 -17 -31
-18 -114 -18 -1773 l0 -1740 29 -53 c30 -54 72 -94 136 -128 33 -18 75 -19
968 -22 l932 -2 0 85 0 85 -926 2 -926 3 -24 28 -24 28 2 1721 3 1720 24 19
c22 18 44 19 427 19 l404 0 0 -78 c0 -64 5 -88 26 -130 85 -171 306 -210 439
-77 58 58 85 126 85 213 l0 72 365 0 365 0 0 -78 c0 -64 5 -88 26 -130 86
-172 301 -209 439 -75 57 56 85 124 85 211 l0 72 529 0 c506 0 530 -1 552 -19
l24 -19 3 -596 2 -596 86 0 85 0 -3 603 c-3 559 -4 604 -21 635 -31 57 -90
114 -142 138 l-50 24 -532 0 -533 0 0 148 c0 170 -11 216 -66 281 -54 63 -113
93 -194 99 -57 4 -76 1 -122 -20 -57 -26 -119 -82 -146 -133 -13 -23 -18 -68
-22 -200 l-5 -170 -362 -3 -363 -2 0 148 c0 170 -11 216 -66 281 -56 65 -113
93 -198 98 -60 3 -79 0 -121 -20z m193 -171 c15 -15 17 -49 20 -329 3 -301 2
-314 -17 -339 -34 -42 -148 -44 -178 -2 -10 14 -13 94 -13 335 l0 318 28 21
c22 18 37 21 85 18 37 -3 64 -11 75 -22z m1250 18 c48 -13 52 -40 52 -363 0
-297 0 -300 -22 -325 -33 -36 -134 -40 -168 -6 -19 19 -20 33 -20 339 l0 320
26 20 c27 21 84 27 132 15z"/>
<path d="M640 3455 l0 -85 1600 0 1600 0 0 85 0 85 -1600 0 -1600 0 0 -85z"/>
<path d="M3385 3019 c-540 -51 -1029 -438 -1214 -962 -138 -390 -92 -822 124
-1182 211 -353 553 -594 965 -682 121 -26 400 -25 525 1 647 135 1124 683
1162 1334 17 313 -88 655 -282 913 -84 112 -249 270 -359 343 -274 181 -604
266 -921 235z m370 -186 c720 -125 1168 -844 979 -1569 -102 -396 -409 -725
-793 -854 -128 -43 -220 -60 -357 -67 -674 -33 -1232 437 -1314 1107 -27 227
14 482 111 689 242 518 792 795 1374 694z"/>
<path d="M3370 1945 l0 -495 490 0 490 0 0 85 0 85 -405 0 -405 0 -2 408 -3
407 -82 3 -83 3 0 -496z"/>
<path d="M1710 2750 l0 -190 85 0 85 0 0 190 0 190 -85 0 -85 0 0 -190z"/>
<path d="M680 2240 l0 -190 85 0 85 0 0 190 0 190 -85 0 -85 0 0 -190z"/>
<path d="M1200 2240 l0 -190 85 0 85 0 0 190 0 190 -85 0 -85 0 0 -190z"/>
<path d="M1710 2240 l0 -190 85 0 85 0 0 190 0 190 -85 0 -85 0 0 -190z"/>
<path d="M684 1907 c-2 -7 -3 -94 -2 -192 l3 -180 83 -3 82 -3 0 196 0 195
-80 0 c-56 0 -82 -4 -86 -13z"/>
<path d="M1200 1725 l0 -196 83 3 82 3 0 190 0 190 -82 3 -83 3 0 -196z"/>
<path d="M1710 1725 l0 -195 85 0 85 0 0 195 0 195 -85 0 -85 0 0 -195z"/>
<path d="M687 1403 c-4 -3 -7 -91 -7 -195 l0 -188 85 0 85 0 0 195 0 195 -78
0 c-43 0 -82 -3 -85 -7z"/>
<path d="M1200 1215 l0 -195 85 0 85 0 -2 193 -3 192 -82 3 -83 3 0 -196z"/>
<path d="M1710 1215 l0 -195 85 0 85 0 -2 193 -3 192 -82 3 -83 3 0 -196z"/>
</g>
</svg>
